<?xml version="1.0" encoding="utf-8"?>
<svg viewBox="-259.556 -77.002 613.341 223.734" width="613.341" height="223.734" xmlns="http://www.w3.org/2000/svg">
  <rect x="-59.325" y="347.88" width="613.341" height="223.734" style="fill: rgb(255, 255, 255);" transform="matrix(1, 0, 0, 1, -200.231247, -424.882446)"/>
  <rect x="-30.752" y="376.778" width="547.704" height="167.061" style="" transform="matrix(1, 0, 0, 1, -200.231247, -424.882446)"/>
  <g transform="matrix(1, 0, 0, 1, -191.977737, -211.058899)">
    <path d="M 90.02 280.883 L 77.536 303.954 L 43.236 303.954 C 26.236 303.954 12.478 303.055 13.236 270.954 L 14.097 212.381 C 14.508 189.028 36.989 188.815 36.989 188.815 L 131.136 187.954 L 119.236 210.954 L 53.836 210.954 C 45.236 210.954 42.236 213.954 42.236 225.954 L 42.236 270.954 C 42.236 279.954 46.736 280.954 51.436 280.954 C 56.136 280.954 90.02 280.883 90.036 280.954 L 90.02 280.883 Z M 104.405 303.667 L 115.236 280.954 C 142.236 280.954 187.136 280.954 196.636 280.954 C 207.736 280.954 210.003 273.292 209.836 261.954 C 201.036 261.954 154.536 261.954 154.536 261.954 C 146.436 261.954 136.931 263.101 132.311 258.694 C 127.691 254.286 130.596 248.817 134.864 239.612 L 155.515 196.674 C 160.126 188.295 169.357 187.954 185.036 187.954 L 203.336 187.954 C 214.436 187.954 222.505 189.268 227.692 194.05 C 232.872 198.832 235.462 206.115 235.462 215.896 L 235.462 272.323 C 235.462 282.855 233.255 303.954 201.936 303.954 C 186.536 303.954 104.436 303.954 104.436 303.954 L 104.405 303.667 Z M 169.298 242.954 L 192.336 242.954 C 197.236 242.954 206.236 242.954 206.236 231.954 L 206.236 219.154 C 205.042 212.672 201.662 209.447 194.936 208.954 L 179.736 208.954 C 172.932 209.447 172.228 211.249 168.908 219.332 L 163.5 233.449 C 160.646 242.622 167.336 242.954 169.298 242.954 Z M 280.594 276.753 L 280.581 305.446 L 254.259 305.446 L 255.897 187.02 L 318.149 186.547 L 373.361 305.259 L 344.532 304.756 L 329.335 276.012 L 280.594 276.753 Z M 287.497 244.469 L 307.646 240.62 L 297.925 227.466 L 287.497 244.469 Z M 393.561 188.652 L 431.301 274.763 L 428.201 189.867 L 458.78 190.074 L 460.056 305.773 L 409.185 305.299 L 355.385 188.651 L 393.561 188.652 Z" style="white-space: pre; stroke-width: 0px; fill: rgb(136, 196, 37);"/>
    <rect x="252.173" y="185.707" width="224.912" height="125.839" style=""/>
    <path style="fill: rgb(216, 216, 216); stroke: rgb(0, 0, 0); stroke-width: 0px;" d="M 280.942 207.113 C 280.942 207.113 280.826 252.281 280.88 252.062 C 280.934 251.843 321.1 252.329 321.1 252.803 C 321.1 253.277 300.474 207.545 300 207.545 C 299.526 207.545 282.012 207.981 280.942 207.113 Z"/>
    <path style="stroke: rgb(0, 0, 0); stroke-width: 0px; fill: rgb(38, 173, 228);" d="M 257.206 206.554 L 257.206 303.954 L 282.206 303.954 C 282.206 303.954 282.206 296.054 282.206 285.254 C 282.206 274.454 292.206 275.954 300.006 275.954 C 306.206 275.954 324.806 275.954 324.806 275.954 C 327.206 275.954 332.807 275.33 336.012 282.765 C 338.762 289.146 345.206 303.954 345.206 303.954 L 375.306 303.954 C 375.306 303.954 335.554 207.179 333.286 201.454 C 331.018 195.729 326.948 187.402 310.806 187.954 L 275.206 187.954 C 264.206 187.454 257.206 195.754 257.206 206.554 Z"/>
    <path style="fill: rgb(216, 216, 216); stroke: rgb(0, 0, 0);"/>
    <path style="fill: rgb(216, 216, 216); stroke: rgb(0, 0, 0);"/>
    <path style="stroke: rgb(0, 0, 0); stroke-width: 0px;" d="M 281.228 219.054 C 280.942 215.824 283.499 210.971 289.113 210.963 C 294.727 210.955 302.389 210.921 307.428 210.954 C 312.528 210.954 314.583 216.724 314.775 217.29 C 315.965 220.799 322.245 239.673 323.866 244.212 C 325.487 248.751 323.206 251.954 316.828 251.954 L 291.728 251.954 C 288.028 251.954 281.206 250.954 281.228 243.654 C 281.206 242.954 281.51 222.242 281.228 219.054 Z"/>
    <path style="fill: rgb(216, 216, 216); stroke: rgb(0, 0, 0);"/>
    <path style="stroke: rgb(0, 0, 0); stroke-width: 0px; fill: rgb(38, 173, 228);" d="M 356.206 187.954 C 356.206 187.954 400.902 286.618 405.236 293.526 C 409.57 300.434 417.644 304.913 424.206 303.954 L 438.106 303.954 C 449.55 302.457 455.206 293.254 455.206 284.254 C 455.206 275.354 455.206 187.954 455.206 187.954 L 432.206 187.954 L 432.206 253.954 C 432.017 261.483 432.938 272.955 426.378 272.569 C 421.537 272.284 421.032 269.07 419.098 265.207 C 417.164 261.344 382.206 187.954 382.206 187.954 C 382.206 187.954 356.49 188.859 356.206 187.954 Z"/>
  </g>
  <path d="M -32.647 403.235 L -4.796 402.059 C 0.704 403.63 1.272 521.466 -4.208 519.9 L -32.647 518.724 L -32.647 403.235 Z" style="fill: rgb(255, 255, 255);" transform="matrix(1, 0, 0, 1, -200.231247, -424.882446)"/>
  <path d="M 490.46 400.687 L 517.723 401.778 L 517.723 517.778 L 489.368 518.324 C 484.993 521.824 487.632 402.949 490.46 400.687 Z" style="fill: rgb(255, 255, 255);" transform="matrix(1, 0, 0, 1, -200.231247, -424.882446)"/>
  <path style="stroke: rgb(0, 0, 0); stroke-width: 0px; fill: rgb(255, 255, 255);" d="M 516.929 374.748 C 515.427 374.921 241.66 394.779 -30.74 374.753 Z" transform="matrix(1, 0, 0, 1, -200.231247, -424.882446)"/>
  <path style="stroke: rgb(0, 0, 0); stroke-width: 0px; fill: rgb(255, 255, 255);" d="M 504.579 545.536 C 503.077 545.372 229.31 526.528 -43.09 545.531 Z" transform="matrix(1, 0, 0, 1, -200.231247, -424.882446)"/>
</svg>