<?xml version="1.0" encoding="iso-8859-1"?>
<!-- Generator: Adobe Illustrator 21.0.0, SVG Export Plug-In . SVG Version: 6.00 Build 0)  -->
<svg xmlns="http://www.w3.org/2000/svg" xmlns:xlink="http://www.w3.org/1999/xlink" version="1.1" id="Capa_1" x="0px" y="0px" viewBox="0 0 512 512" style="enable-background:new 0 0 512 512;" xml:space="preserve" width="512" height="512">
<g>
	<g>
		<g>
			<g>
				<g>
					<g>
						<g>
							<g>
								<g>
									<g>
										<circle style="fill:#FFC200;" cx="256" cy="256" r="256"/>
									</g>
								</g>
							</g>
						</g>
					</g>
				</g>
			</g>
		</g>
	</g>
	<path style="fill:#FF8B00;" d="M508.899,295.899L435,222l-4.813,3.215l-88.37-88.37l-27.977,65.489l-97.114-97.114L92,384.566   l124.379,124.379C229.293,510.952,242.524,512,256,512C383.812,512,489.737,418.332,508.899,295.899z"/>
	<g>
		<polygon style="fill:#3F6199;" points="435,372 335,322 335,272 435,222   "/>
	</g>
	<g>
		<path style="fill:#3F6199;" d="M330.621,395.5H113.379C98.81,395.5,87,383.69,87,369.121V224.879    c0-14.569,11.81-26.379,26.379-26.379h217.242c14.569,0,26.379,11.81,26.379,26.379v144.242    C357,383.69,345.19,395.5,330.621,395.5z"/>
	</g>
	<g>
		<path style="fill:#2B4160;" d="M330.621,198.5h-94.716v197h94.716c14.569,0,26.379-11.81,26.379-26.379V224.879    C357,210.31,345.19,198.5,330.621,198.5z"/>
	</g>
	<g>
		<circle style="fill:#2B4160;" cx="164.5" cy="155.5" r="72.5"/>
	</g>
	<g>
		<circle style="fill:#1E3249;" cx="296.434" cy="171.125" r="56.875"/>
	</g>
	<g>
		<rect x="113" y="319" style="fill:#2B4160;" width="211" height="45"/>
	</g>
	<g>
		<rect x="235.905" y="319" style="fill:#1E3249;" width="88.095" height="45"/>
	</g>
</g>















</svg>
