<?xml version="1.0" encoding="iso-8859-1"?>
<!-- Generator: Adobe Illustrator 21.0.0, SVG Export Plug-In . SVG Version: 6.00 Build 0)  -->
<svg xmlns="http://www.w3.org/2000/svg" xmlns:xlink="http://www.w3.org/1999/xlink" version="1.1" id="Capa_1" x="0px" y="0px" viewBox="0 0 512 512" style="enable-background:new 0 0 512 512;" xml:space="preserve" width="512" height="512">
<g>
	<g>
		<g>
			<g>
				<g>
					<g>
						<g>
							<g>
								<g>
									<g>
										<circle style="fill:#FFC200;" cx="256" cy="256" r="256"/>
									</g>
								</g>
							</g>
						</g>
					</g>
				</g>
			</g>
		</g>
	</g>
	<path style="fill:#FF8B00;" d="M512,256c0-14.893-1.287-29.484-3.728-43.681l-102.89-102.89L97,191.024V401l105.352,105.352   C219.654,510.042,237.597,512,256,512C397.385,512,512,397.385,512,256z"/>
	<g>
		<rect x="97" y="208.195" style="fill:#3F6199;" width="318" height="192.805"/>
	</g>
	<g>
		<rect x="255.905" y="208.195" style="fill:#2B4160;" width="159.095" height="192.805"/>
	</g>
	<g>
		
			<rect x="92.197" y="129.528" transform="matrix(0.9918 -0.1278 0.1278 0.9918 -18.007 33.3981)" style="fill:#3F6199;" width="318" height="54.922"/>
	</g>
	<g>
		<polygon style="fill:#2B4160;" points="405.382,109.429 255.905,128.694 255.905,184.071 412.403,163.9   "/>
	</g>
	<g>
		<polygon style="fill:#FFFFFF;" points="272.807,181.892 225.201,188.028 239.008,130.872 286.615,124.736   "/>
	</g>
	<g>
		<polygon style="fill:#E9EDF5;" points="286.615,124.736 255.905,128.694 255.905,184.071 272.807,181.892   "/>
	</g>
	<g>
		<polygon style="fill:#E9EDF5;" points="365.788,169.908 318.182,176.044 331.989,118.888 379.596,112.752   "/>
	</g>
	<g>
		<polygon style="fill:#FFFFFF;" points="179.827,193.876 132.22,200.012 146.027,142.856 193.634,136.72   "/>
	</g>
	<g>
		<rect x="97" y="204.539" style="fill:#2B4160;" width="318" height="54.922"/>
	</g>
	<g>
		<rect x="255.905" y="204.539" style="fill:#1E3249;" width="159.095" height="54.922"/>
	</g>
	<g>
		<rect x="139.5" y="293" style="fill:#FFFFFF;" width="233" height="78"/>
	</g>
	<g>
		<rect x="255.905" y="293" style="fill:#E9EDF5;" width="116.595" height="78"/>
	</g>
	<g>
		<polygon style="fill:#E9EDF5;" points="274.25,259.461 226.25,259.461 247.25,204.539 295.25,204.539   "/>
	</g>
	<g>
		<polygon style="fill:#DCE1EB;" points="295.25,204.539 255.905,204.539 255.905,259.461 274.25,259.461   "/>
	</g>
	<g>
		<polygon style="fill:#DCE1EB;" points="368,259.461 320,259.461 341,204.539 389,204.539   "/>
	</g>
	<g>
		<polygon style="fill:#E9EDF5;" points="180.5,259.461 132.5,259.461 153.5,204.539 201.5,204.539   "/>
	</g>
</g>















</svg>
