<?xml version="1.0" encoding="iso-8859-1"?>
<!-- Generator: Adobe Illustrator 19.0.0, SVG Export Plug-In . SVG Version: 6.00 Build 0)  -->
<svg xmlns="http://www.w3.org/2000/svg" xmlns:xlink="http://www.w3.org/1999/xlink" version="1.1" id="Layer_1" x="0px" y="0px" viewBox="0 0 512 512" style="enable-background:new 0 0 512 512;" xml:space="preserve" width="512" height="512">
<g>
	<g>
		<g>
			<g>
				<polygon style="fill:#9BB3CE;" points="142.32,385.786 142.32,396.5 94.5,444.32 89.229,444.32 89.229,479.68 94.5,479.68       177.68,396.5 177.68,385.786     "/>
				<polygon style="fill:#9BB3CE;" points="418.5,444.32 370.68,396.5 370.68,386.841 335.32,386.841 335.32,396.5 418.5,479.68       426.146,478.946 426.146,444.32     "/>
			</g>
			<g>
				<g>
					<path style="fill:#B3C7E0;" d="M445.5,384.5v114.27c0,3.17-2.56,5.73-5.73,5.73h-15.54c-3.17,0-5.73-2.56-5.73-5.73v-19.09       v-35.36V384.5H445.5z"/>
				</g>
				<g>
					<path style="fill:#B3C7E0;" d="M94.5,444.32v35.36v19.09c0,3.17-2.56,5.73-5.73,5.73H73.23c-3.17,0-5.73-2.56-5.73-5.73V384.5       h27V444.32z"/>
				</g>
			</g>
			<g>
				<path style="fill:#9BB5D1;" d="M432,498.77v-19.09v-35.36V384.5h-13.5v59.82v35.36v19.09c0,3.17,2.56,5.73,5.73,5.73h13.5      C434.56,504.5,432,501.94,432,498.77z"/>
				<path style="fill:#9BB5D1;" d="M81,498.77V384.5H67.5v114.27c0,3.17,2.56,5.73,5.73,5.73h13.5C83.56,504.5,81,501.94,81,498.77z      "/>
			</g>
			<polygon style="fill:#A96538;" points="319.14,171.602 317.5,171.602 317.5,263.398 428.5,263.398 428.5,171.602    "/>
			<path style="fill:#A5572B;" d="M338.723,200.835v-29.234H319.14h-1.64v91.796h111v-22.991h-50.205     C356.44,240.408,338.723,222.691,338.723,200.835z"/>
			<polygon style="fill:#A96538;" points="141.5,35 141.5,153 164.5,153 206.5,153 238.5,153 272.5,153 272.5,35    "/>
			<path style="fill:#A5572B;" d="M259.5,120.707h-32h-42h-5.484c-9.674,0-17.516-7.842-17.516-17.516V35h-21v118h23h42h32h34     v-32.293H259.5z"/>
			<path style="fill:#C48547;" d="M313.2,139.5h-28.7h-12h-34h-32v123h111v-84v-1.64v-24.72v-8.34     C317.5,141.42,315.58,139.5,313.2,139.5z"/>
			<path style="fill:#BA7A3F;" d="M237.5,198.482V139.5h-31v123h111V238h-40.482C255.193,238,237.5,220.307,237.5,198.482z"/>
			<g>
				<path style="fill:#D19756;" d="M164.5,139.5h-23h-23H79.8c-2.38,0-4.3,1.92-4.3,4.3v122.7h131v-127H164.5z"/>
				<path style="fill:#CC8D4E;" d="M106.5,202.482V139.5H79.8c-2.375,0-4.3,1.925-4.3,4.3v122.7h131V242h-60.482      C124.193,242,106.5,224.307,106.5,202.482z"/>
				<g>
					<path style="fill:#FEEC5D;" d="M162.5,232.45v33.05h-42v-33.05c0-2.48,2.38-4.27,4.76-3.59l15.21,4.35       c0.67,0.19,1.39,0.19,2.06,0l15.21-4.35C160.12,228.18,162.5,229.97,162.5,232.45z"/>
				</g>
			</g>
			<g id="XMLID_1_">
				<g>
					<g>
						<path style="fill:#6C7D98;" d="M461.5,354.5v30.78c0,6.19-5.03,11.22-11.22,11.22h-4.78h-27h-47.82h-35.36H177.68h-35.36H94.5        h-27h-4.78c-6.19,0-11.22-5.03-11.22-11.22V354.5H60h392H461.5z"/>
					</g>
					<path style="fill:#5E728E;" d="M106.489,377.231H461.5V354.5H452H60h-8.5v30.78c0,6.197,5.023,11.22,11.22,11.22h4.78h19.72v0       C87.22,385.858,95.847,377.231,106.489,377.231z"/>
					<g>
						<path style="fill:#D19756;" d="M443.5,160.35v12.84c0,2.93-2.38,5.31-5.31,5.31h-9.69H319.14c-0.91,0-1.64-0.73-1.64-1.64        v-24.72c0-0.91,0.73-1.64,1.64-1.64h114.51C439.09,150.5,443.5,154.91,443.5,160.35z"/>
					</g>
					<path style="fill:#C48547;" d="M338.823,178.5c0-7.732,6.268-14,14-14H443.5v-4.15c0-5.44-4.41-9.85-9.85-9.85H319.14       c-0.906,0-1.64,0.734-1.64,1.64v24.72c0,0.906,0.734,1.64,1.64,1.64L338.823,178.5L338.823,178.5z"/>
					<g>
						<path style="fill:#FEEC5D;" d="M402.5,207.57v19.86c0,2.25-1.82,4.07-4.07,4.07h-49.86c-2.25,0-4.07-1.82-4.07-4.07v-19.86        c0-2.25,1.82-4.07,4.07-4.07h49.86C400.68,203.5,402.5,205.32,402.5,207.57z"/>
					</g>
					<path style="fill:#F9CC4E;" d="M379.32,221.007c-9.669,0-17.507-7.838-17.507-17.507v0H348.57c-2.248,0-4.07,1.822-4.07,4.07       v19.86c0,2.248,1.822,4.07,4.07,4.07h49.86c2.248,0,4.07-1.822,4.07-4.07v-6.423H379.32z"/>
					<g>
						<path style="fill:#FEEC5D;" d="M284.5,139.5v51.94c0,2.3-2.45,3.78-4.49,2.72l-17.09-8.92c-0.89-0.46-1.95-0.46-2.84,0        l-17.09,8.92c-2.04,1.06-4.49-0.42-4.49-2.72V139.5h34H284.5z"/>
					</g>
					<g>
						<path style="fill:#A05A33;" d="M278.5,16.4v28.944c0,1.743-1.413,3.156-3.156,3.156H272.5h-131h-2.844        c-1.743,0-3.156-1.413-3.156-3.156V16.4c0-4.915,3.985-8.9,8.9-8.9h125.2C274.515,7.5,278.5,11.485,278.5,16.4z"/>
					</g>
					<path style="fill:#96502D;" d="M275.344,31.209H272.5h-131h-2.844c-1.743,0-3.156-1.413-3.156-3.156v17.291       c0,1.743,1.413,3.156,3.156,3.156h2.844h131h2.844c1.743,0,3.156-1.413,3.156-3.156V28.053       C278.5,29.796,277.087,31.209,275.344,31.209z"/>
					<g>
						<path style="fill:#FEEC5D;" d="M244.5,89.83v21.34c0,1.84-1.49,3.33-3.33,3.33h-67.34c-1.84,0-3.33-1.49-3.33-3.33V89.83        c0-1.84,1.49-3.33,3.33-3.33h67.34C243.01,86.5,244.5,87.99,244.5,89.83z"/>
					</g>
					<path style="fill:#F9CC4E;" d="M192.901,103.312c-1.84,0-3.33-1.49-3.33-3.33V86.5H173.83c-1.84,0-3.33,1.49-3.33,3.33v21.34       c0,1.84,1.49,3.33,3.33,3.33h67.34c1.84,0,3.33-1.49,3.33-3.33v-7.858H192.901z"/>
					<g>
						<path style="fill:#FEEC5D;" d="M164.5,139.5v51.94c0,2.3-2.45,3.78-4.49,2.72l-17.09-8.92c-0.89-0.46-1.95-0.46-2.84,0        l-17.09,8.92c-2.04,1.06-4.49-0.42-4.49-2.72V139.5h23H164.5z"/>
					</g>
					<g>
						<path style="fill:#F9CC4E;" d="M142.53,233.21c-0.67,0.19-1.39,0.19-2.06,0l-15.21-4.35c-2.38-0.68-4.76,1.11-4.76,3.59v33.05        H143v-32.424L142.53,233.21z"/>
					</g>
					<g>
						<path style="fill:#F9CC4E;" d="M261,139.5h-22.5v51.94c0,2.3,2.45,3.78,4.49,2.72l17.09-8.92        c0.292-0.151,0.604-0.234,0.92-0.286V139.5z"/>
					</g>
					<g>
						<path style="fill:#F9CC4E;" d="M141,139.5h-22.5v51.94c0,2.3,2.45,3.78,4.49,2.72l17.09-8.92        c0.292-0.151,0.604-0.234,0.92-0.286V139.5z"/>
					</g>
					<path style="fill:#B3C7E0;" d="M452,256.5h-23.5h-111h-111h-131H60c-14.5,0-27.62,5.88-37.12,15.38S7.5,294.5,7.5,309       c0,28.99,23.51,52.5,52.5,52.5h392c14.5,0,27.62-5.88,37.12-15.38S504.5,323.5,504.5,309C504.5,280.01,480.99,256.5,452,256.5z       "/>
					<path style="fill:#9BB5D1;" d="M133.5,325.092c-28.99,0-52.5-23.51-52.5-52.5c0-5.616,0.891-11.021,2.524-16.092H75.5H60       c-14.5,0-27.62,5.88-37.12,15.38S7.5,294.5,7.5,309c0,28.99,23.51,52.5,52.5,52.5h392c14.5,0,27.62-5.88,37.12-15.38       c5.821-5.821,10.273-13.004,12.856-21.028H133.5z"/>
					<path style="fill:#5B6381;" d="M452,281.5h-71.5h-124h-124H60c-15.16,0-27.5,12.34-27.5,27.5c0,15.16,12.34,27.5,27.5,27.5       h72.5h124h124H452c15.16,0,27.5-12.34,27.5-27.5C479.5,293.84,467.16,281.5,452,281.5z"/>
					<path style="fill:#535C7A;" d="M464.173,322h-71.5h-124h-124h-72.5c-15.16,0-27.5-12.34-27.5-27.5       c0-3.274,0.578-6.416,1.634-9.331C38.065,289.924,32.5,298.823,32.5,309c0,15.16,12.34,27.5,27.5,27.5h72.5h124h124H452       c11.886,0,22.035-7.586,25.866-18.169C473.831,320.66,469.157,322,464.173,322z"/>
					<g>
						<circle style="fill:#41465E;" cx="380.5" cy="308.5" r="26"/>
					</g>
					<g>
						<circle style="fill:#41465E;" cx="256.5" cy="308.5" r="26"/>
					</g>
					<g>
						<circle style="fill:#41465E;" cx="132.5" cy="308.5" r="26"/>
					</g>
				</g>
			</g>
		</g>
	</g>
	<g>
		<path d="M512,309c0-33.084-26.916-60-60-60h-16v-63h2.191c7.063,0,12.809-5.746,12.809-12.809V160.35    c0-9.567-7.783-17.35-17.35-17.35H324.96c-0.413-6.133-5.521-11-11.757-11H280V55.849c3.423-0.695,6-3.721,6-7.349V16.398    C286,7.356,278.644,0,269.602,0H144.398C135.356,0,128,7.356,128,16.398V48.5c0,3.628,2.577,6.654,6,7.349V132H79.797    C73.292,132,68,137.292,68,143.797V195c0,4.142,3.358,7.5,7.5,7.5s7.5-3.358,7.5-7.5v-48h28v44.438    c0,3.727,1.903,7.106,5.09,9.038c1.693,1.026,3.58,1.542,5.473,1.542c1.67,0,3.345-0.402,4.894-1.21l15.042-7.848l15.042,7.848    c3.305,1.724,7.18,1.601,10.367-0.332c3.188-1.932,5.09-5.311,5.09-9.038V147h27v102h-29v-16.548c0-3.558-1.629-6.827-4.469-8.969    c-2.841-2.143-6.43-2.812-9.853-1.833L141.5,225.7l-14.179-4.051c-3.421-0.978-7.011-0.309-9.852,1.833    c-2.84,2.143-4.469,5.412-4.469,8.969V249H83v-24c0-4.142-3.358-7.5-7.5-7.5S68,220.858,68,225v24h-8c-33.084,0-60,26.916-60,60    c0,27.543,18.662,50.795,44,57.817v18.459c0,9.397,6.965,17.177,16,18.503v94.995C60,506.067,65.933,512,73.226,512h15.548    c7.293,0,13.226-5.933,13.226-13.226v-15.99L180.784,404h151.432L411,482.784v15.99c0,7.293,5.933,13.226,13.226,13.226h15.548    c7.293,0,13.226-5.933,13.226-13.226v-94.995c9.035-1.326,16-9.106,16-18.503v-18.744C493.828,359.182,512,336.18,512,309z     M128,237.443l10.415,2.976c2.018,0.576,4.152,0.576,6.171,0L155,237.443V248h-27V237.443z M421,249h-96v-63h96V249z M436,160.35    V171H325v-13h108.65C434.946,158,436,159.054,436,160.35z M246,147h31v37.127l-10.609-5.535c-3.063-1.6-6.72-1.6-9.78-0.001    L246,184.127V147z M143,16.398c0-0.771,0.627-1.398,1.398-1.398h125.204c0.771,0,1.398,0.627,1.398,1.398V41H143V16.398z     M157,184.127l-10.609-5.535c-3.063-1.6-6.72-1.6-9.78-0.001L126,184.127V147h31V184.127z M149,132V56h116v76H149z M87,497H75v-93    h12V497z M124.216,404L102,426.216V404H124.216z M102,461.571v-14.143L145.429,404h14.143L102,461.571z M353.429,404h14.143    L411,447.429v14.143L353.429,404z M411,426.216L388.784,404H411V426.216z M438,497h-12v-93h12V497z M454,369v16.276    c0,2.054-1.67,3.724-3.724,3.724H62.724C60.67,389,59,387.33,59,385.276V369H454z M452,354H60c-24.813,0-45-20.187-45-45    s20.187-45,45-45h183c4.142,0,7.5-3.358,7.5-7.5s-3.358-7.5-7.5-7.5h-29V147h17v44.438c0,3.727,1.903,7.106,5.09,9.038    c1.693,1.026,3.58,1.542,5.473,1.542c1.67,0,3.345-0.402,4.894-1.21l15.042-7.848l15.042,7.848    c3.305,1.724,7.18,1.601,10.367-0.332c3.188-1.932,5.09-5.311,5.09-9.038V147h18v102h-37c-4.142,0-7.5,3.358-7.5,7.5    s3.358,7.5,7.5,7.5h179c24.813,0,45,20.187,45,45S476.813,354,452,354z"/>
		<path d="M452,274H60c-19.299,0-35,15.701-35,35s15.701,35,35,35h392c19.299,0,35-15.701,35-35S471.299,274,452,274z M380.5,327    c-10.201,0-18.5-8.299-18.5-18.5s8.299-18.5,18.5-18.5s18.5,8.299,18.5,18.5S390.701,327,380.5,327z M354.033,329h-71.065    c4.402-5.671,7.033-12.782,7.033-20.5c0-7.271-2.336-14.003-6.286-19.5h69.572c-3.95,5.497-6.286,12.229-6.286,19.5    C347,316.218,349.63,323.329,354.033,329z M132.5,290c10.201,0,18.5,8.299,18.5,18.5s-8.299,18.5-18.5,18.5s-18.5-8.299-18.5-18.5    S122.299,290,132.5,290z M159.714,289h69.572c-3.95,5.497-6.286,12.229-6.286,19.5c0,7.718,2.63,14.829,7.033,20.5h-71.065    c4.402-5.671,7.033-12.782,7.033-20.5C166,301.229,163.664,294.497,159.714,289z M275,308.5c0,10.201-8.299,18.5-18.5,18.5    s-18.5-8.299-18.5-18.5s8.299-18.5,18.5-18.5S275,298.299,275,308.5z M40,309c0-11.028,8.972-20,20-20h45.286    c-3.95,5.497-6.286,12.229-6.286,19.5c0,7.718,2.63,14.829,7.033,20.5H60C48.972,329,40,320.028,40,309z M452,329h-45.033    c4.402-5.671,7.033-12.782,7.033-20.5c0-7.271-2.336-14.003-6.286-19.5H452c11.028,0,20,8.972,20,20S463.028,329,452,329z"/>
		<path d="M348.569,239h49.861c6.379,0,11.569-5.19,11.569-11.569v-19.861c0-6.379-5.19-11.569-11.569-11.569h-49.861    C342.19,196,337,201.19,337,207.569v19.861C337,233.81,342.19,239,348.569,239z M352,211h43v13h-43V211z"/>
		<path d="M252,111.167V89.833C252,83.86,247.14,79,241.167,79h-67.333C167.86,79,163,83.86,163,89.833v21.333    c0,5.974,4.86,10.833,10.833,10.833h67.333C247.14,122,252,117.14,252,111.167z M237,107h-59V94h59V107z"/>
	</g>
</g>















</svg>
