<?xml version="1.0" encoding="iso-8859-1"?>
<!-- Generator: Adobe Illustrator 21.0.0, SVG Export Plug-In . SVG Version: 6.00 Build 0)  -->
<svg xmlns="http://www.w3.org/2000/svg" xmlns:xlink="http://www.w3.org/1999/xlink" version="1.1" id="Capa_1" x="0px" y="0px" viewBox="0 0 512 512" style="enable-background:new 0 0 512 512;" xml:space="preserve" width="512" height="512">
<g>
	<g>
		<g>
			<g>
				<g>
					<g>
						<g>
							<g>
								<g>
									<g>
										<circle style="fill:#FFC200;" cx="256" cy="256" r="256"/>
									</g>
								</g>
							</g>
						</g>
					</g>
				</g>
			</g>
		</g>
	</g>
	<path style="fill:#FF8B00;" d="M512,256c0-9.863-0.578-19.59-1.663-29.163L424,140.5l-48.461,71.539L248.5,85L96,390l32.297,32.297   L119.5,427l78.367,78.367C216.544,509.704,236.003,512,256,512C397.385,512,512,397.385,512,256z"/>
	<path style="fill:#2B4160;" d="M239,140.5v151h185v-151H239z M341,195.5h-37.5V158H341V195.5z M401,195.5h-37.5V158H401V195.5z"/>
	<path style="fill:#1E3249;" d="M239,255.31V371.5h185V255.31H239z M341,351.75h-37.5v-37.5H341V351.75z M401,351.75h-37.5v-37.5   H401V351.75z"/>
	<g>
		<rect x="96" y="122" style="fill:#4AB8F7;" width="176" height="268"/>
	</g>
	<g>
		<rect x="96" y="255.31" style="fill:#368DCF;" width="176" height="134.69"/>
	</g>
	<g>
		<rect x="119.5" y="85" style="fill:#3F6199;" width="129" height="37"/>
	</g>
	<g>
		<rect x="119.5" y="390" style="fill:#2B4160;" width="129" height="37"/>
	</g>
	<g>
		<rect x="119.5" y="147" style="fill:#368DCF;" width="59.5" height="220"/>
	</g>
	<g>
		<rect x="119.5" y="255.31" style="fill:#0053BF;" width="59.5" height="111.69"/>
	</g>
</g>















</svg>
