<?xml version="1.0" encoding="iso-8859-1"?>
<!-- Generator: Adobe Illustrator 19.0.0, SVG Export Plug-In . SVG Version: 6.00 Build 0)  -->
<svg xmlns="http://www.w3.org/2000/svg" xmlns:xlink="http://www.w3.org/1999/xlink" version="1.1" id="Layer_1" x="0px" y="0px" viewBox="0 0 512.189 512.189" style="enable-background:new 0 0 512.189 512.189;" xml:space="preserve" width="512" height="512">
<polygon style="fill-rule:evenodd;clip-rule:evenodd;fill:#7AC943;" points="502.088,453.902 82.995,453.902 50.142,453.902   10.088,453.902 10.088,502.094 502.088,502.094 "/>
<path style="fill-rule:evenodd;clip-rule:evenodd;fill:#29ABE2;" d="M345.846,161.602c2.408,5.826,6.236,11.167,11.395,15.458  c6.065,5.029,13.238,7.984,20.551,8.865c13.125,1.62,26.787-3.268,35.774-14.179l79.369-96.013  c14.03-16.992,11.649-42.394-5.303-56.46c-16.95-14.065-42.292-11.707-56.322,5.285l-79.369,96.013  C342.189,132.392,340.375,148.276,345.846,161.602L345.846,161.602z"/>
<path style="fill-rule:evenodd;clip-rule:evenodd;fill:#EDEDED;" d="M218.941,305.636c14.23,4.916,24.265,13.639,29.282,27.363  l129.568-147.074c-7.313-0.881-14.485-3.837-20.551-8.865c-5.158-4.291-8.986-9.632-11.395-15.458L218.941,305.636z"/>
<path style="fill-rule:evenodd;clip-rule:evenodd;fill:#B3B3B3;" d="M109.78,399.319h103.86c38.691,0,38.268-43.957,38.268-43.957  c-0.114-8.609-1.36-16.026-3.685-22.362c-5.018-13.724-15.053-22.447-29.282-27.363c-3.061-1.052-6.349-1.932-9.779-2.643  l-119.62-24.777c-25.624-5.285-41.639,11.508-41.639,28.358v8.665c5.355-1.761,11.11-2.699,17.063-2.699  c8.022,0,15.618,1.705,22.508,4.802c15.477,6.99,27.155,20.97,31.01,37.934c0.68,2.955,1.106,6.024,1.275,9.121  c0.058,1.052,0.085,2.103,0.085,3.154c0,10.854-3.118,20.97-8.532,29.466C110.83,397.813,110.319,398.58,109.78,399.319  L109.78,399.319z"/>
<path style="fill-rule:evenodd;clip-rule:evenodd;fill:#EDEDED;" d="M104.622,329.532c-4.847-5.086-10.658-9.263-17.148-12.19  c-6.89-3.097-14.485-4.802-22.508-4.802c-30.131,0-54.877,24.465-54.877,55.011c0,25.232,16.951,46.515,40.054,52.993  c3.884,1.08,7.964,1.761,12.131,1.961c1.899,0.085,3.799,0.085,5.669,0c5.244-0.284,10.29-1.307,15.053-2.983  c10.912-3.78,20.238-10.94,26.785-20.203c0.539-0.739,1.05-1.506,1.531-2.302c5.414-8.496,8.532-18.611,8.532-29.466  C119.843,353.344,114.457,339.818,104.622,329.532L104.622,329.532z"/>
<path style="fill-rule:evenodd;clip-rule:evenodd;fill:#378B29;" d="M390.462,453.902c1.02-20.43-1.531-38.701-8.788-53.191  c-12.16-24.266-37.444-37.991-81.239-33.756c21.742,7.217,45.099,40.149,43.199,86.948H390.462z"/>
<path style="fill-rule:evenodd;clip-rule:evenodd;fill:#378B29;" d="M381.674,400.711c7.257,14.491,9.808,32.761,8.788,53.191  h51.645c-2.664-64.927,29.764-110.674,59.98-120.676C429.778,326.208,393.807,354.537,381.674,400.711L381.674,400.711z"/>
<path style="fill-rule:evenodd;clip-rule:evenodd;fill:#29ABE2;" d="M80.273,453.902l15.731-40.944  c-18.566,12.729-43.426,12.814-62.049,0l16.186,40.944H80.273z"/>
<g>
	<path d="M56.154,390.766c0,5.572,4.517,10.088,10.088,10.088h0.311c5.572,0,10.088-4.517,10.088-10.088   s-4.517-10.088-10.088-10.088h-0.311C60.671,380.677,56.154,385.194,56.154,390.766z"/>
	<path d="M49.829,367.239h0.313c5.572,0,10.088-4.517,10.088-10.088c0-5.572-4.517-10.088-10.088-10.088h-0.313   c-5.572,0-10.088,4.517-10.088,10.088C39.74,362.723,44.257,367.239,49.829,367.239z"/>
	<path d="M90.165,376.275h0.142c5.572,0,10.088-4.517,10.088-10.088s-4.517-10.088-10.088-10.088h-0.142   c-5.572,0-10.088,4.517-10.088,10.088S84.594,376.275,90.165,376.275z"/>
	<path d="M502.088,443.814h-50.01c0.843-57.7,30.806-93.604,53.18-101.01c4.526-1.498,7.386-5.961,6.855-10.699   c-0.53-4.738-4.305-8.458-9.051-8.919c-75.301-7.31-109.31,22.907-124.378,55.852c-0.686-0.715-1.382-1.421-2.1-2.105   c-17.362-16.566-43.311-23.3-77.125-20.018c-4.744,0.461-8.519,4.178-9.051,8.915c-0.532,4.736,2.323,9.199,6.847,10.701   c14.936,4.957,34.805,28.792,36.297,67.285h-63.249c-5.571,0-10.088,4.517-10.088,10.088s4.517,10.088,10.088,10.088h221.696   v28.015H20.177v-28.015h29.935c0.011,0,0.022,0.002,0.033,0.002c0.018,0,0.035-0.002,0.053-0.002h30.02   c0.018,0,0.036,0.002,0.054,0.002c0.021,0,0.043-0.002,0.064-0.002h110.259c5.572,0,10.088-4.517,10.088-10.088   s-4.517-10.088-10.088-10.088H94.956l9.443-24.578c3.77-2.895,7.215-6.191,10.271-9.829h98.97c13.361,0,24.4-4.305,32.809-12.796   c15.612-15.763,15.556-40.31,15.546-41.36c-0.079-7.209-0.905-13.819-2.454-19.839l122.553-139.109   c0.203,0.002,0.405,0.013,0.608,0.013c15.033,0,29.117-6.614,38.638-18.142l15.199-18.387c0.012-0.014,0.024-0.025,0.035-0.038   c0.014-0.016,0.023-0.034,0.037-0.05l64.102-77.543c17.6-21.315,14.62-53.006-6.64-70.646c-8.94-7.419-20.281-11.505-31.932-11.505   c-15.025,0-29.099,6.608-38.608,18.125l-79.373,96.017c-10.763,13.034-13.82,29.943-9.725,45.153l-33.187,37.75   c-3.678,4.185-3.267,10.559,0.916,14.237c1.917,1.685,4.292,2.512,6.657,2.512c2.8,0,5.587-1.16,7.581-3.428l28.032-31.888   c1.9,2.26,4.013,4.389,6.362,6.338c2.845,2.36,5.934,4.379,9.198,6.039L250.197,315.497c-3.949-5.247-8.878-9.681-14.794-13.28   l28.55-32.39c3.685-4.18,3.283-10.555-0.897-14.239c-4.181-3.684-10.556-3.283-14.239,0.897l-33.198,37.663   c-1.441-0.37-2.904-0.721-4.412-1.034L91.58,268.335c-14.977-3.088-28.933-0.14-39.295,8.302   c-9.196,7.493-14.47,18.404-14.47,29.936v1.858C15.518,318.756,0,341.365,0,367.551c0,21.083,10.061,39.847,25.616,51.751   l9.69,24.512H10.088C4.517,443.814,0,448.331,0,453.902v48.192c0,5.572,4.517,10.088,10.088,10.088h492   c5.571,0,10.088-4.517,10.088-10.088v-48.192C512.176,448.331,507.66,443.814,502.088,443.814z M469.875,342.562   c-20.978,21.105-37.361,56.633-37.979,101.252h-31.143c-0.168-17.019-2.958-31.725-8.35-44.008   C402.999,364.168,428.482,345.272,469.875,342.562z M330.614,377.307c13.443,1.958,24.169,6.71,32.044,14.223   c11.655,11.12,17.657,28.688,17.915,52.285h-26.832C352.765,415.819,343.305,392.814,330.614,377.307z M412.63,62.988   l46.102,38.286l-31.255,37.809l-46.103-38.285L412.63,62.988z M439.088,30.982c5.667-6.864,14.07-10.8,23.054-10.8   c6.955,0,13.72,2.435,19.048,6.855c12.719,10.553,14.498,29.517,3.969,42.268l-13.571,16.417l-46.102-38.285L439.088,30.982z    M359.715,127l8.805-10.651l46.103,38.285l-8.836,10.689c-5.678,6.874-14.091,10.817-23.084,10.817   c-6.946,0-13.701-2.431-19.02-6.844c-3.916-3.249-6.791-7.297-8.594-11.714c-0.032-0.074-0.061-0.149-0.095-0.223   C351.049,147.47,352.475,135.767,359.715,127z M65.029,292.279c5.569-4.538,13.549-6.024,22.466-4.185l119.619,24.777   c2.958,0.613,5.706,1.345,8.257,2.2c0.101,0.038,0.204,0.069,0.305,0.104c11.476,3.919,18.856,10.413,22.754,20.228   c0.174,0.712,0.425,1.407,0.754,2.072c1.704,5.116,2.56,11.064,2.635,17.944c0,0.172-0.083,17.355-9.77,27.059   c-4.536,4.543-10.558,6.752-18.409,6.752h-87.427c1.66-4.694,2.803-9.63,3.346-14.745h35.383c5.572,0,10.088-4.517,10.088-10.088   c0-5.572-4.517-10.088-10.088-10.088h-36.365c-1.065-5.144-2.74-10.065-4.941-14.689h37.848c5.572,0,10.088-4.517,10.088-10.088   c0-5.572-4.517-10.088-10.088-10.088h-52.797c-11.55-10.55-26.899-16.992-43.722-16.992c-2.206,0-4.386,0.113-6.536,0.329   C59.346,298.775,61.669,295.017,65.029,292.279z M64.965,322.628c24.697,0,44.789,20.152,44.789,44.922   c0,24.771-20.092,44.922-44.789,44.922c-24.697,0-44.789-20.152-44.789-44.922C20.177,342.78,40.269,322.628,64.965,322.628z    M52.078,431.359c4.167,0.844,8.476,1.291,12.887,1.291c4.517,0,8.926-0.467,13.184-1.35l-4.808,12.514h-16.34L52.078,431.359z"/>
	<path d="M230.194,443.53c-5.572,0-10.088,4.517-10.088,10.088s4.517,10.088,10.088,10.088h0.256   c5.572,0,10.088-4.517,10.088-10.088s-4.517-10.088-10.088-10.088H230.194z"/>
	<path d="M282.214,243.892c2.272,0,4.559-0.764,6.443-2.331l0.171-0.142c4.284-3.562,4.87-9.923,1.308-14.207   c-3.562-4.283-9.924-4.871-14.206-1.308l-0.171,0.142c-4.284,3.562-4.87,9.923-1.308,14.207   C276.447,242.653,279.32,243.892,282.214,243.892z"/>
</g>















</svg>
