<?xml version="1.0" encoding="iso-8859-1"?>
<!-- Generator: Adobe Illustrator 19.0.0, SVG Export Plug-In . SVG Version: 6.00 Build 0)  -->
<svg version="1.1" id="Capa_1" xmlns="http://www.w3.org/2000/svg" xmlns:xlink="http://www.w3.org/1999/xlink" x="0px" y="0px"
	 viewBox="0 0 512 512" style="enable-background:new 0 0 512 512;" xml:space="preserve">
<path style="fill:#606060;" d="M323.577,323.577c-15.979,2.271-32.331,1.305-47.993-2.903c-2.658,13.452-9.182,26.283-19.584,36.686
	l-76.02,76.02c-27.945,27.945-73.415,27.945-101.36,0s-27.945-73.415,0-101.36L154.64,256
	c10.402-10.402,23.234-16.926,36.686-19.584c22.684-4.482,47.132,2.041,64.674,19.584s41.991,24.066,64.674,19.584
	c-5.251-19.551-15.545-38.028-30.887-53.37l0,0c-15.342-15.342-33.82-25.637-53.37-30.887c-15.662-4.207-32.014-5.173-47.993-2.903
	c-24.722,3.513-48.553,14.775-67.569,33.79l-76.02,76.02c-46.65,46.65-46.65,122.283,0,168.933l0,0
	c46.649,46.649,122.283,46.649,168.933,0l76.02-76.02C308.802,372.13,320.064,348.299,323.577,323.577z"/>
<path style="fill:#7F93DB;" d="M467.167,44.833L467.167,44.833c-46.65-46.65-122.283-46.65-168.933,0l-76.02,76.02
	c-19.016,19.016-30.278,42.848-33.79,67.569c15.979-2.271,32.331-1.305,47.993,2.903c2.658-13.452,9.182-26.283,19.584-36.686
	l76.02-76.02c27.945-27.945,73.415-27.945,101.36,0s27.945,73.415,0,101.36L357.36,256c-10.402,10.402-23.234,16.926-36.686,19.584
	C297.99,280.066,273.543,273.543,256,256s-41.991-24.066-64.674-19.584c5.251,19.551,15.545,38.028,30.887,53.37l0,0
	c15.342,15.342,33.82,25.637,53.37,30.887c15.662,4.206,32.014,5.173,47.993,2.903c24.722-3.513,48.553-14.775,67.569-33.79
	l76.02-76.02C513.817,167.117,513.817,91.484,467.167,44.833z"/>
<path d="M474.13,37.871l-6.963,6.962L474.13,37.871C449.707,13.45,417.237,0,382.7,0c-34.537,0-67.007,13.45-91.429,37.871
	l-76.019,76.02c-18.25,18.249-30.362,40.957-35.339,66.02c-25.062,4.977-47.772,17.089-66.021,35.339l-76.019,76.02
	C13.45,315.692,0,348.163,0,382.7s13.45,67.008,37.871,91.428S94.763,512,129.3,512c34.537,0,67.007-13.45,91.429-37.871
	l76.019-76.02c18.25-18.249,30.362-40.957,35.339-66.02c25.062-4.977,47.772-17.089,66.021-35.339l76.019-76.02
	C498.55,196.308,512,163.837,512,129.3S498.55,62.293,474.13,37.871z M282.824,384.184l-76.02,76.02
	c-42.735,42.736-112.273,42.736-155.009,0c-20.702-20.703-32.102-48.227-32.102-77.504c0-29.277,11.402-56.801,32.103-77.504
	l76.019-76.02c16.927-16.926,38.364-27.647,61.993-31.005c1.167-0.165,2.333-0.306,3.498-0.435c0.31-0.034,0.619-0.065,0.929-0.096
	c0.962-0.098,1.923-0.184,2.884-0.256c0.226-0.018,0.454-0.038,0.68-0.054c1.166-0.081,2.332-0.143,3.497-0.186
	c0.237-0.009,0.474-0.013,0.711-0.021c0.96-0.03,1.92-0.047,2.88-0.051c0.301-0.001,0.603-0.004,0.904-0.003
	c0.954,0.003,1.908,0.019,2.861,0.047c0.138,0.004,0.276,0.005,0.414,0.009c1.096,0.037,2.192,0.093,3.286,0.162
	c0.267,0.018,0.533,0.039,0.799,0.059c0.832,0.059,1.663,0.127,2.493,0.206c0.332,0.031,0.665,0.064,0.996,0.098
	c0.837,0.087,1.673,0.185,2.509,0.29c0.256,0.033,0.513,0.062,0.77,0.096c1.083,0.145,2.164,0.306,3.244,0.484
	c0.186,0.031,0.371,0.067,0.557,0.098c0.892,0.152,1.784,0.315,2.674,0.489c0.329,0.064,0.657,0.132,0.986,0.2
	c0.792,0.162,1.582,0.335,2.372,0.515c0.301,0.069,0.603,0.135,0.904,0.207c1.071,0.254,2.141,0.52,3.207,0.806
	c2.305,0.619,4.587,1.313,6.841,2.082c15.781,5.379,30.23,14.368,42.12,26.258c0.025,0.025,0.048,0.049,0.072,0.074
	c0.747,0.749,1.482,1.51,2.206,2.279c0.243,0.258,0.48,0.52,0.722,0.78c0.512,0.554,1.019,1.113,1.519,1.677
	c0.258,0.29,0.514,0.582,0.768,0.875c0.5,0.576,0.993,1.159,1.481,1.746c0.218,0.261,0.437,0.52,0.652,0.783
	c0.687,0.842,1.366,1.692,2.027,2.553c0.048,0.062,0.094,0.126,0.141,0.188c0.615,0.804,1.218,1.619,1.811,2.44
	c0.203,0.281,0.401,0.565,0.601,0.848c0.438,0.619,0.871,1.243,1.296,1.87c0.212,0.312,0.422,0.626,0.63,0.941
	c0.429,0.648,0.85,1.301,1.264,1.957c0.172,0.272,0.348,0.543,0.517,0.816c0.572,0.924,1.133,1.853,1.678,2.792
	c0.058,0.101,0.113,0.204,0.171,0.304c0.484,0.843,0.958,1.693,1.42,2.547c0.165,0.306,0.325,0.614,0.487,0.922
	c0.353,0.67,0.701,1.343,1.041,2.019c0.167,0.333,0.334,0.667,0.497,1.001c0.347,0.709,0.684,1.422,1.015,2.138
	c0.129,0.28,0.262,0.557,0.389,0.838c0.448,0.991,0.883,1.987,1.302,2.991c0.058,0.14,0.112,0.281,0.169,0.42
	c0.29,0.705,0.568,1.415,0.844,2.126c-0.03,0-0.059,0.002-0.09,0.002c-0.992,0.011-1.981-0.001-2.968-0.037
	c-0.023-0.001-0.044-0.002-0.067-0.002c-11.298-0.426-22.24-3.889-31.667-10.068c-0.091-0.06-0.181-0.12-0.272-0.18
	c-0.804-0.533-1.598-1.083-2.38-1.655c-0.03-0.021-0.058-0.043-0.087-0.065c-0.737-0.543-1.462-1.107-2.177-1.684
	c-0.112-0.091-0.226-0.18-0.339-0.272c-0.705-0.578-1.399-1.174-2.081-1.785c-0.137-0.122-0.271-0.246-0.407-0.37
	c-0.695-0.634-1.381-1.279-2.05-1.949c-19.249-19.248-46.746-27.579-73.545-22.281c-15.865,3.135-30.298,10.84-41.74,22.281
	l-76.019,76.02c-2.883,2.883-5.523,5.945-7.909,9.161c-10.343,13.937-15.933,30.771-15.933,48.481
	c0,12.166,2.644,23.917,7.649,34.602c3.962,8.457,9.4,16.247,16.193,23.04c15.375,15.375,35.846,23.842,57.642,23.842
	s42.268-8.468,57.642-23.842l76.02-76.02c0.651-0.651,1.286-1.314,1.912-1.984c0.197-0.21,0.389-0.424,0.583-0.636
	c0.434-0.474,0.864-0.952,1.285-1.436c0.208-0.238,0.415-0.478,0.62-0.718c0.428-0.502,0.849-1.01,1.264-1.521
	c0.165-0.204,0.334-0.405,0.497-0.61c0.565-0.71,1.12-1.428,1.661-2.155c0.091-0.121,0.176-0.246,0.265-0.367
	c0.451-0.614,0.893-1.234,1.326-1.859c0.169-0.246,0.336-0.493,0.503-0.74c0.353-0.523,0.701-1.05,1.042-1.58
	c0.165-0.257,0.331-0.514,0.492-0.774c0.368-0.589,0.728-1.182,1.081-1.78c0.111-0.188,0.226-0.374,0.336-0.563
	c0.454-0.783,0.895-1.572,1.321-2.37c0.099-0.186,0.194-0.375,0.292-0.562c0.326-0.619,0.645-1.244,0.955-1.872
	c0.134-0.273,0.266-0.546,0.397-0.82c0.274-0.571,0.541-1.145,0.8-1.723c0.121-0.269,0.243-0.538,0.362-0.807
	c0.304-0.695,0.598-1.395,0.882-2.099c0.057-0.142,0.118-0.281,0.174-0.422c0.335-0.841,0.653-1.689,0.96-2.542
	c0.088-0.245,0.17-0.492,0.256-0.738c0.146-0.417,0.295-0.833,0.434-1.252c0.61,0.115,1.223,0.214,1.834,0.321
	c0.448,0.078,0.894,0.161,1.343,0.234c1.121,0.183,2.245,0.35,3.369,0.503c0.182,0.025,0.364,0.056,0.547,0.08
	c1.293,0.17,2.587,0.319,3.882,0.45c0.445,0.045,0.892,0.08,1.337,0.12c0.863,0.078,1.725,0.153,2.589,0.214
	c0.53,0.037,1.06,0.066,1.591,0.097c0.788,0.045,1.576,0.086,2.365,0.117c0.549,0.022,1.1,0.04,1.649,0.054
	c0.79,0.021,1.58,0.032,2.371,0.039c0.347,0.003,0.692,0.018,1.039,0.018c0.173,0,0.347-0.009,0.52-0.009
	c1.181-0.005,2.362-0.027,3.545-0.063c0.204-0.007,0.408-0.007,0.611-0.015c0.032-0.001,0.063-0.001,0.095-0.002
	C306.473,353.285,296.748,370.26,282.824,384.184z M248.432,184.631c0.337-0.953,0.7-1.894,1.082-2.828
	c0.09-0.219,0.182-0.435,0.275-0.653c0.356-0.841,0.728-1.676,1.12-2.5c0.053-0.112,0.103-0.226,0.158-0.339
	c0.439-0.907,0.906-1.801,1.389-2.684c0.116-0.213,0.234-0.422,0.353-0.634c0.458-0.815,0.931-1.622,1.427-2.415
	c0.05-0.081,0.097-0.163,0.148-0.244c0.539-0.854,1.105-1.692,1.686-2.52c0.143-0.203,0.288-0.405,0.432-0.606
	c0.567-0.789,1.149-1.568,1.756-2.33c0.034-0.043,0.066-0.088,0.1-0.131c0.636-0.796,1.299-1.572,1.976-2.338
	c0.166-0.188,0.335-0.375,0.503-0.562c0.69-0.762,1.394-1.516,2.126-2.247l76.02-76.02c11.655-11.656,27.181-18.075,43.717-18.075
	c16.536,0,32.062,6.42,43.717,18.075c0.729,0.729,1.437,1.472,2.124,2.23c10.31,11.37,15.951,25.985,15.951,41.487
	c0,15.503-5.642,30.117-15.951,41.488c-0.687,0.758-1.395,1.502-2.124,2.23l-76.02,76.02c-0.732,0.732-1.484,1.435-2.247,2.125
	c-0.187,0.169-0.374,0.338-0.563,0.504c-0.766,0.677-1.542,1.34-2.336,1.975c-0.044,0.035-0.091,0.069-0.135,0.103
	c-0.761,0.606-1.539,1.186-2.326,1.753c-0.202,0.145-0.404,0.29-0.608,0.433c-0.827,0.58-1.664,1.146-2.517,1.684
	c-0.083,0.052-0.168,0.101-0.251,0.153c-0.791,0.493-1.594,0.965-2.406,1.421c-0.213,0.12-0.425,0.24-0.639,0.356
	c-0.883,0.482-1.774,0.948-2.68,1.387c-0.114,0.055-0.229,0.105-0.344,0.159c-0.822,0.392-1.654,0.763-2.493,1.118
	c-0.219,0.093-0.437,0.186-0.658,0.277c-0.931,0.382-1.872,0.744-2.824,1.08c-0.037,0.013-0.076,0.025-0.114,0.038
	c-0.198-0.558-0.411-1.111-0.615-1.667c-0.159-0.43-0.313-0.862-0.477-1.291c-0.378-0.992-0.772-1.978-1.175-2.96
	c-0.095-0.232-0.184-0.468-0.281-0.699c-0.503-1.208-1.027-2.408-1.567-3.6c-0.155-0.341-0.318-0.677-0.476-1.016
	c-0.395-0.853-0.795-1.702-1.208-2.546c-0.214-0.435-0.434-0.867-0.653-1.301c-0.375-0.744-0.755-1.486-1.145-2.222
	c-0.24-0.455-0.484-0.908-0.731-1.36c-0.392-0.72-0.791-1.436-1.196-2.147c-0.25-0.439-0.499-0.878-0.754-1.314
	c-0.437-0.748-0.886-1.49-1.339-2.23c-0.234-0.384-0.465-0.769-0.703-1.15c-0.609-0.973-1.233-1.936-1.868-2.893
	c-0.091-0.137-0.177-0.276-0.268-0.412c-0.729-1.087-1.476-2.163-2.237-3.229c-0.239-0.335-0.486-0.664-0.73-0.996
	c-0.533-0.731-1.069-1.459-1.618-2.18c-0.303-0.398-0.612-0.792-0.921-1.186c-0.507-0.651-1.019-1.298-1.54-1.94
	c-0.327-0.403-0.657-0.803-0.989-1.203c-0.527-0.634-1.061-1.262-1.601-1.888c-0.33-0.381-0.658-0.763-0.992-1.142
	c-0.591-0.668-1.191-1.326-1.796-1.982c-0.292-0.317-0.58-0.638-0.876-0.952c-0.904-0.962-1.821-1.912-2.756-2.848
	c-0.936-0.936-1.889-1.854-2.852-2.761c-0.306-0.288-0.618-0.568-0.927-0.853c-0.666-0.613-1.333-1.223-2.011-1.823
	c-0.369-0.327-0.743-0.649-1.117-0.971c-0.634-0.548-1.273-1.091-1.917-1.627c-0.39-0.324-0.782-0.646-1.176-0.965
	c-0.655-0.531-1.315-1.054-1.979-1.571c-0.382-0.297-0.762-0.597-1.147-0.89c-0.74-0.563-1.489-1.115-2.24-1.662
	c-0.313-0.227-0.623-0.462-0.938-0.686c-1.072-0.766-2.154-1.518-3.249-2.251c-0.104-0.07-0.212-0.136-0.316-0.205
	c-0.99-0.658-1.987-1.303-2.993-1.933c-0.363-0.227-0.731-0.447-1.096-0.671c-0.758-0.465-1.518-0.924-2.285-1.373
	c-0.424-0.248-0.852-0.491-1.279-0.735c-0.724-0.412-1.451-0.818-2.184-1.216c-0.444-0.241-0.888-0.48-1.334-0.718
	c-0.743-0.393-1.493-0.777-2.244-1.156c-0.428-0.216-0.855-0.434-1.285-0.645c-0.849-0.416-1.704-0.819-2.562-1.216
	c-0.335-0.155-0.667-0.316-1.002-0.469c-1.193-0.541-2.394-1.064-3.604-1.568c-0.229-0.096-0.462-0.183-0.692-0.278
	c-0.983-0.404-1.97-0.798-2.963-1.176c-0.433-0.164-0.869-0.321-1.305-0.481c-0.552-0.204-1.101-0.416-1.656-0.611
	C248.408,184.706,248.419,184.669,248.432,184.631z M219.033,300.364c0.665,0.612,1.331,1.221,2.008,1.82
	c0.37,0.328,0.745,0.65,1.119,0.973c0.634,0.548,1.272,1.091,1.916,1.626c0.39,0.324,0.782,0.646,1.175,0.965
	c0.656,0.532,1.316,1.055,1.982,1.573c0.381,0.297,0.76,0.596,1.144,0.888c0.74,0.564,1.49,1.116,2.242,1.663
	c0.313,0.227,0.622,0.461,0.937,0.686c1.072,0.766,2.154,1.518,3.249,2.251c0.104,0.07,0.212,0.136,0.316,0.205
	c0.99,0.658,1.987,1.303,2.993,1.933c0.363,0.227,0.731,0.447,1.096,0.671c0.758,0.465,1.518,0.924,2.284,1.373
	c0.425,0.249,0.854,0.492,1.282,0.736c0.723,0.412,1.448,0.817,2.179,1.214c0.444,0.242,0.89,0.482,1.337,0.718
	c0.743,0.394,1.492,0.778,2.243,1.156c0.428,0.216,0.855,0.434,1.285,0.645c0.849,0.417,1.704,0.819,2.562,1.216
	c0.335,0.155,0.667,0.316,1.002,0.469c1.193,0.541,2.395,1.064,3.605,1.568c0.227,0.095,0.459,0.182,0.687,0.276
	c0.985,0.404,1.973,0.799,2.968,1.178c0.433,0.164,0.869,0.321,1.305,0.482c0.552,0.204,1.101,0.415,1.656,0.611
	c-0.013,0.037-0.025,0.075-0.037,0.112c-0.337,0.953-0.7,1.895-1.082,2.829c-0.09,0.219-0.182,0.434-0.274,0.652
	c-0.356,0.842-0.728,1.677-1.12,2.501c-0.053,0.112-0.103,0.226-0.158,0.339c-0.439,0.907-0.906,1.801-1.389,2.684
	c-0.116,0.213-0.234,0.422-0.353,0.634c-0.458,0.815-0.931,1.622-1.427,2.415c-0.05,0.081-0.097,0.163-0.148,0.244
	c-0.539,0.855-1.105,1.692-1.687,2.521c-0.142,0.202-0.287,0.403-0.43,0.604c-0.568,0.789-1.15,1.568-1.757,2.331
	c-0.034,0.043-0.066,0.088-0.1,0.131c-0.636,0.796-1.299,1.572-1.976,2.338c-0.166,0.188-0.335,0.375-0.503,0.562
	c-0.69,0.762-1.394,1.516-2.126,2.247l-76.02,76.02c-11.655,11.656-27.181,18.075-43.717,18.075s-32.062-6.42-43.717-18.075
	c-0.729-0.729-1.437-1.472-2.124-2.23c-10.31-11.37-15.951-25.985-15.951-41.487c0-15.503,5.642-30.117,15.951-41.488
	c0.687-0.758,1.395-1.502,2.124-2.23l76.02-76.02c0.732-0.732,1.484-1.435,2.247-2.125c0.187-0.169,0.374-0.338,0.563-0.504
	c0.765-0.676,1.541-1.339,2.336-1.974c0.045-0.036,0.093-0.071,0.139-0.107c0.76-0.604,1.537-1.184,2.323-1.75
	c0.202-0.146,0.404-0.29,0.608-0.433c0.827-0.58,1.664-1.146,2.517-1.684c0.083-0.052,0.168-0.101,0.251-0.153
	c0.791-0.493,1.594-0.965,2.406-1.421c0.213-0.12,0.425-0.24,0.639-0.356c0.882-0.482,1.774-0.948,2.679-1.386
	c0.115-0.056,0.233-0.106,0.349-0.162c0.82-0.391,1.651-0.761,2.489-1.116c0.219-0.093,0.437-0.186,0.658-0.277
	c0.931-0.382,1.872-0.744,2.824-1.08c0.037-0.013,0.076-0.025,0.114-0.038c0.198,0.558,0.411,1.111,0.615,1.667
	c0.159,0.43,0.313,0.862,0.477,1.29c0.38,0.996,0.775,1.986,1.18,2.973c0.094,0.227,0.181,0.459,0.276,0.686
	c0.504,1.209,1.027,2.409,1.568,3.602c0.155,0.341,0.318,0.677,0.476,1.016c0.395,0.853,0.795,1.702,1.208,2.546
	c0.214,0.435,0.434,0.867,0.653,1.301c0.375,0.744,0.755,1.486,1.145,2.222c0.034,0.065,0.067,0.132,0.101,0.197
	c-5.461,1.931-10.49,5.076-14.715,9.302l-48.734,48.733c-3.845,3.845-3.846,10.079,0,13.925c1.923,1.922,4.443,2.884,6.962,2.884
	c2.52,0,5.04-0.962,6.962-2.884l48.734-48.733c3.269-3.27,7.503-5.239,12.008-5.673c0.041,0.055,0.084,0.107,0.125,0.162
	c0.302,0.397,0.61,0.789,0.917,1.183c0.508,0.652,1.021,1.3,1.542,1.943c0.327,0.403,0.656,0.803,0.988,1.203
	c0.528,0.636,1.063,1.264,1.604,1.889c0.329,0.38,0.656,0.761,0.99,1.138c0.591,0.669,1.192,1.328,1.798,1.985
	c0.292,0.317,0.58,0.637,0.875,0.951c0.904,0.962,1.821,1.912,2.756,2.848c0.936,0.936,1.889,1.854,2.852,2.76
	C218.41,299.798,218.723,300.078,219.033,300.364z M460.204,206.804l-76.019,76.02c-16.927,16.926-38.364,27.647-61.993,31.005
	c-12.301,1.747-24.605,1.419-36.68-0.957c-2.468-0.485-4.927-1.05-7.374-1.707c-2.305-0.619-4.587-1.313-6.841-2.082
	c-15.781-5.379-30.23-14.368-42.12-26.258c-0.025-0.024-0.047-0.049-0.072-0.074c-0.748-0.749-1.482-1.511-2.208-2.28
	c-0.242-0.257-0.479-0.517-0.718-0.777c-0.513-0.555-1.021-1.115-1.522-1.68c-0.257-0.29-0.514-0.582-0.768-0.875
	c-0.5-0.576-0.992-1.158-1.48-1.744c-0.218-0.262-0.439-0.522-0.654-0.786c-0.687-0.842-1.365-1.691-2.026-2.552
	c-0.048-0.062-0.094-0.126-0.141-0.188c-0.615-0.804-1.218-1.619-1.811-2.44c-0.203-0.281-0.401-0.565-0.601-0.848
	c-0.438-0.619-0.871-1.243-1.296-1.87c-0.212-0.312-0.422-0.626-0.63-0.941c-0.429-0.648-0.85-1.301-1.264-1.957
	c-0.172-0.272-0.348-0.543-0.517-0.816c-0.572-0.924-1.133-1.853-1.678-2.792c-0.058-0.101-0.113-0.204-0.171-0.304
	c-0.484-0.843-0.958-1.693-1.42-2.547c-0.165-0.306-0.326-0.615-0.488-0.924c-0.353-0.669-0.7-1.341-1.04-2.018
	c-0.167-0.333-0.334-0.668-0.498-1.002c-0.347-0.709-0.684-1.422-1.015-2.138c-0.129-0.28-0.262-0.557-0.389-0.838
	c-0.448-0.991-0.883-1.987-1.302-2.991c-0.058-0.14-0.112-0.281-0.169-0.42c-0.29-0.705-0.568-1.415-0.844-2.126
	c0.435-0.006,0.869-0.004,1.304-0.001c0.796,0.005,1.589,0.023,2.381,0.059c0.109,0.005,0.22,0.006,0.328,0.012
	c0.862,0.043,1.721,0.11,2.578,0.189c0.232,0.022,0.466,0.043,0.697,0.067c0.846,0.088,1.69,0.189,2.53,0.311
	c0.17,0.025,0.34,0.054,0.51,0.081c0.745,0.114,1.488,0.243,2.227,0.385c0.191,0.037,0.384,0.071,0.575,0.109
	c0.833,0.167,1.662,0.353,2.486,0.555c0.209,0.051,0.416,0.104,0.624,0.158c0.797,0.204,1.59,0.419,2.379,0.655
	c0.068,0.021,0.136,0.037,0.204,0.058c0.836,0.253,1.664,0.53,2.489,0.817c0.2,0.07,0.399,0.14,0.598,0.211
	c0.81,0.292,1.617,0.599,2.414,0.926c0.141,0.058,0.28,0.119,0.419,0.177c0.726,0.303,1.445,0.62,2.159,0.951
	c0.15,0.069,0.3,0.136,0.449,0.206c0.785,0.371,1.562,0.761,2.332,1.167c0.172,0.091,0.345,0.184,0.516,0.277
	c0.771,0.415,1.536,0.841,2.289,1.29c0.022,0.013,0.044,0.025,0.066,0.037c0.77,0.459,1.527,0.942,2.278,1.436
	c0.163,0.106,0.326,0.214,0.488,0.323c0.733,0.492,1.457,0.997,2.171,1.522c0.115,0.085,0.228,0.172,0.343,0.258
	c0.654,0.488,1.299,0.99,1.935,1.505c0.117,0.095,0.235,0.187,0.352,0.283c0.687,0.565,1.363,1.149,2.028,1.746
	c0.144,0.129,0.287,0.261,0.43,0.392c0.678,0.62,1.349,1.251,2.003,1.905c19.248,19.247,46.743,27.575,73.545,22.281
	c15.865-3.135,30.298-10.84,41.74-22.281l76.019-76.02c2.883-2.883,5.523-5.945,7.909-9.161
	c10.343-13.937,15.933-30.771,15.933-48.481c0-12.166-2.644-23.917-7.65-34.602c-3.962-8.457-9.4-16.247-16.193-23.04
	c-15.375-15.375-35.846-23.842-57.642-23.842s-42.268,8.468-57.642,23.842l-76.02,76.02c-0.651,0.651-1.286,1.313-1.912,1.984
	c-0.197,0.21-0.389,0.424-0.583,0.636c-0.434,0.474-0.863,0.952-1.285,1.436c-0.208,0.238-0.415,0.478-0.62,0.718
	c-0.428,0.501-0.848,1.008-1.262,1.519c-0.166,0.205-0.336,0.408-0.5,0.613c-0.565,0.71-1.12,1.428-1.66,2.154
	c-0.091,0.121-0.176,0.246-0.265,0.367c-0.451,0.614-0.893,1.234-1.326,1.859c-0.17,0.246-0.336,0.493-0.503,0.74
	c-0.353,0.523-0.7,1.049-1.041,1.579c-0.165,0.258-0.332,0.516-0.494,0.776c-0.368,0.588-0.728,1.182-1.08,1.778
	c-0.111,0.188-0.226,0.374-0.337,0.564c-0.454,0.783-0.895,1.572-1.321,2.37c-0.099,0.186-0.194,0.375-0.292,0.562
	c-0.326,0.619-0.645,1.243-0.955,1.871c-0.135,0.273-0.266,0.548-0.398,0.823c-0.273,0.57-0.539,1.142-0.799,1.719
	c-0.122,0.27-0.244,0.539-0.363,0.81c-0.304,0.695-0.598,1.395-0.882,2.099c-0.057,0.142-0.118,0.281-0.174,0.422
	c-0.335,0.841-0.653,1.689-0.96,2.542c-0.088,0.245-0.17,0.492-0.256,0.738c-0.146,0.417-0.295,0.833-0.434,1.252
	c-0.029-0.005-0.058-0.01-0.087-0.016c-1.1-0.207-2.201-0.399-3.303-0.577c-0.379-0.062-0.759-0.113-1.138-0.171
	c-0.754-0.115-1.509-0.229-2.266-0.331c-0.459-0.062-0.918-0.115-1.377-0.171c-0.677-0.084-1.355-0.166-2.034-0.239
	c-0.492-0.053-0.985-0.098-1.477-0.146c-0.65-0.062-1.301-0.122-1.951-0.174c-0.505-0.04-1.01-0.077-1.516-0.111
	c-0.642-0.043-1.284-0.083-1.926-0.118c-0.508-0.027-1.017-0.052-1.526-0.073c-0.646-0.027-1.292-0.047-1.939-0.064
	c-0.502-0.014-1.004-0.027-1.507-0.033c-0.668-0.01-1.336-0.011-2.005-0.01c-0.478,0-0.955-0.001-1.433,0.004
	c-0.729,0.009-1.456,0.03-2.185,0.05c-0.34,0.01-0.678,0.011-1.017,0.024c4.881-18.741,14.605-35.716,28.53-49.64l76.02-76.02
	c42.735-42.736,112.273-42.736,155.009,0l0,0c20.701,20.705,32.101,48.23,32.101,77.507S480.906,186.102,460.204,206.804z"/>
<path d="M124.16,348.012c-0.246-0.592-0.551-1.163-0.906-1.695c-0.364-0.542-0.778-1.044-1.231-1.497
	c-2.284-2.294-5.681-3.339-8.881-2.698c-0.63,0.128-1.25,0.315-1.841,0.561c-0.601,0.246-1.172,0.551-1.703,0.906
	c-0.542,0.364-1.044,0.778-1.497,1.231c-0.453,0.453-0.866,0.955-1.221,1.497c-0.354,0.532-0.66,1.103-0.906,1.695
	c-0.246,0.6-0.433,1.22-0.561,1.84c-0.128,0.64-0.197,1.291-0.197,1.93c0,0.64,0.069,1.291,0.197,1.92
	c0.128,0.631,0.315,1.251,0.561,1.841c0.246,0.601,0.551,1.172,0.906,1.703c0.354,0.542,0.768,1.044,1.221,1.497
	c0.453,0.453,0.955,0.866,1.497,1.221c0.532,0.354,1.103,0.66,1.703,0.906c0.591,0.246,1.211,0.433,1.841,0.561
	c0.63,0.128,1.28,0.186,1.92,0.186c0.64,0,1.29-0.059,1.93-0.186c0.62-0.128,1.241-0.315,1.841-0.561
	c0.591-0.246,1.162-0.551,1.694-0.906c0.542-0.354,1.044-0.768,1.497-1.221c0.453-0.453,0.866-0.955,1.231-1.497
	c0.354-0.532,0.66-1.103,0.906-1.703c0.246-0.591,0.433-1.21,0.561-1.841c0.128-0.63,0.187-1.28,0.187-1.92
	c0-0.639-0.059-1.29-0.187-1.93C124.593,349.232,124.406,348.613,124.16,348.012z"/>
<g>
</g>
<g>
</g>
<g>
</g>
<g>
</g>
<g>
</g>
<g>
</g>
<g>
</g>
<g>
</g>
<g>
</g>
<g>
</g>
<g>
</g>
<g>
</g>
<g>
</g>
<g>
</g>
<g>
</g>
</svg>
