<svg id="Capa_1" enable-background="new 0 0 512 512" height="512" viewBox="0 0 512 512" width="512" xmlns="http://www.w3.org/2000/svg"><circle cx="256" cy="256" fill="#ffe400" r="256"/><path d="m512 256c0 87.11-43.52 164.07-110 210.31-41.41 28.8-91.73 45.69-146 45.69s-104.59-16.89-146-45.69c-66.48-46.24-110-123.2-110-210.31 0-46.22 12.25-89.57 33.68-127 44.12 77.07 127.16 129 222.32 129s178.21-51.93 222.32-129c21.43 37.43 33.68 80.78 33.68 127z" fill="#fed110"/><path d="m440.46 433.5c-46.57 48.39-112 78.5-184.46 78.5s-137.89-30.11-184.46-78.5z" fill="#374c81"/><path d="m440.46 433.5c-46.57 48.39-112 78.5-184.46 78.5v-78.5z" fill="#323b5a"/><path d="m460.42 320.34-190.78 76.7c-12.81 5.15-27.37-1.06-32.52-13.87l-110.87-275.77c-1.96-4.88-6.86-7.92-12.1-7.52l-57.92 4.46c-2.07.16-4.1-.07-6.01-.65 9.18-12.39 19.46-23.91 30.68-34.44l35.53-2.74c17.77-1.37 34.38 8.94 41.03 25.48l108.25 269.24 181.76-73.08c8.89-3.58 18.99.73 22.57 9.62v.01c3.57 8.88-.73 18.99-9.62 22.56z" fill="#4e689b"/><path d="m384.747 101.64 69.236 172.205c2.233 5.555-.459 11.868-6.014 14.102l-172.205 69.236c-5.555 2.233-11.868-.459-14.102-6.014l-69.236-172.205c-2.233-5.555.459-11.868 6.014-14.102l172.205-69.236c5.555-2.234 11.868.459 14.102 6.014z" fill="#ff9d66"/><path d="m384.747 101.64 69.236 172.205c2.233 5.555-.459 11.868-6.014 14.102l-86.102 34.618-77.323-192.32 86.102-34.618c5.554-2.235 11.867.458 14.101 6.013z" fill="#f4863d"/><path d="m268.409 128.401h51.305v51.036h-51.305z" fill="#fdf0b2" transform="matrix(.928 -.373 .373 .928 -36.191 120.805)"/><path d="m293.136 123.617h25.653v51.036h-25.653z" fill="#fede8c" transform="matrix(.928 -.373 .373 .928 -33.547 124.899)"/><g fill="#374c81"><path d="m366.693 269.88h61.748v13.614h-61.748z" transform="matrix(.928 -.373 .373 .928 -74.516 168.277)"/><path d="m357.213 246.301h61.748v13.614h-61.748z" transform="matrix(.928 -.373 .373 .928 -66.405 163.039)"/><path d="m460.42 320.34-190.78 76.7c-12.81 5.15-27.37-1.06-32.52-13.87l-110.87-275.77c-1.96-4.88-6.86-7.92-12.1-7.52l-57.92 4.46c-2.07.16-4.1-.07-6.01-.65 4.22-5.69 8.67-11.2 13.34-16.51l52.92-4.08c.64-.05 1.28-.07 1.91-.07 10.06 0 19.22 6.11 23.02 15.56l114.67 285.21 213.96-86.02c3.57 8.89-.74 18.99-9.62 22.56z"/></g><ellipse cx="256.078" cy="383.8" fill="#4e689b" rx="49.7" ry="49.7" transform="matrix(.23 -.973 .973 .23 -176.289 544.849)"/><path d="m256.078 334.099v99.401c27.449 0 49.7-22.251 49.7-49.7.001-27.449-22.251-49.701-49.7-49.701z" fill="#374c81"/><circle cx="256.078" cy="383.8" fill="#374c81" r="22.942"/><path d="m279.021 383.8c0 12.672-10.27 22.942-22.942 22.942v-45.884c12.672 0 22.942 10.269 22.942 22.942z" fill="#323b5a"/><path d="m279.021 383.8c0 12.672-10.27 22.942-22.942 22.942v-45.884c12.672 0 22.942 10.269 22.942 22.942z" fill="#323b5a"/></svg>