<?xml version="1.0" encoding="iso-8859-1"?>
<!-- Generator: Adobe Illustrator 21.0.0, SVG Export Plug-In . SVG Version: 6.00 Build 0)  -->
<svg xmlns="http://www.w3.org/2000/svg" xmlns:xlink="http://www.w3.org/1999/xlink" version="1.1" id="Capa_1" x="0px" y="0px" viewBox="0 0 512 512" style="enable-background:new 0 0 512 512;" xml:space="preserve" width="512" height="512">
<g>
	<g>
		<g>
			<g>
				<g>
					<g>
						<g>
							<g>
								<g>
									<g>
										<circle style="fill:#FFC200;" cx="256" cy="256" r="256"/>
									</g>
								</g>
							</g>
						</g>
					</g>
				</g>
			</g>
		</g>
	</g>
	<path style="fill:#FF8B00;" d="M512,256c0-14.906-1.289-29.51-3.734-43.719L372.985,77l-233.97,358l73.266,73.266   C226.49,510.711,241.094,512,256,512C397.385,512,512,397.385,512,256z"/>
	<g>
		<rect x="139.015" y="77" style="fill:#2B4160;" width="233.97" height="358"/>
	</g>
	<g>
		<rect x="255.905" y="77" style="fill:#1E3249;" width="117.08" height="358"/>
	</g>
	<g>
		<circle style="fill:#3F6199;" cx="256" cy="316.231" r="88.873"/>
	</g>
	<g>
		<path style="fill:#2B4160;" d="M256,227.358c-0.032,0-0.063,0.001-0.095,0.001v177.744c0.032,0,0.063,0.001,0.095,0.001    c49.083,0,88.873-39.79,88.873-88.873S305.083,227.358,256,227.358z"/>
	</g>
	<g>
		<circle style="fill:#3F6199;" cx="256" cy="163.267" r="53.567"/>
	</g>
	<g>
		<path style="fill:#2B4160;" d="M256,109.7c-0.032,0-0.063,0.002-0.095,0.002v107.129c0.032,0,0.063,0.002,0.095,0.002    c29.584,0,53.567-23.983,53.567-53.567C309.567,133.683,285.584,109.7,256,109.7z"/>
	</g>
	<g>
		<circle style="fill:#466EB2;" cx="256" cy="316.231" r="43.309"/>
	</g>
	<g>
		<path style="fill:#3F6199;" d="M256,272.922c-0.032,0-0.063,0.002-0.095,0.002v86.613c0.032,0,0.063,0.002,0.095,0.002    c23.919,0,43.309-19.39,43.309-43.309S279.919,272.922,256,272.922z"/>
	</g>
</g>















</svg>
