<?xml version="1.0" encoding="iso-8859-1"?>
<!-- Generator: Adobe Illustrator 19.0.0, SVG Export Plug-In . SVG Version: 6.00 Build 0)  -->
<svg version="1.1" id="Capa_1" xmlns="http://www.w3.org/2000/svg" xmlns:xlink="http://www.w3.org/1999/xlink" x="0px" y="0px"
	 viewBox="0 0 512 512" style="enable-background:new 0 0 512 512;" xml:space="preserve">
<circle style="fill:#FFECB3;" cx="256" cy="256" r="256"/>
<path style="fill:#FFD863;" d="M256,512c141.385,0,256-114.615,256-256c0-4.879-0.15-9.723-0.419-14.535L408.559,138.443
	l-2.808,4.063L350.37,87.245L80.209,301.821l182.977,182.977L233,510.96C240.578,511.635,248.246,512,256,512z"/>
<path style="fill:#333333;" d="M233,510.96c7.578,0.675,15.246,1.04,23,1.04s15.422-0.365,23-1.04V275h-46V510.96z"/>
<path style="fill:#1A1A1A;" d="M255.952,275v237c0.016,0,0.032,0,0.048,0c7.754,0,15.422-0.365,23-1.04V275H255.952z"/>
<path style="fill:#005C83;" d="M352.715,113.24c41.135,0,74.481,33.346,74.481,74.481V301.82H154.691V113.38L352.715,113.24z"/>
<path style="fill:#00263F;" d="M427.196,187.721c0-41.135-33.346-74.481-74.481-74.481l-55.215,0.069v188.512h129.696
	L427.196,187.721L427.196,187.721z"/>
<path style="fill:#0074A3;" d="M229.172,301.82H80.209V187.721c0-41.135,33.346-74.481,74.481-74.481l0,0
	c41.135,0,74.481,33.346,74.481,74.481L229.172,301.82L229.172,301.82z"/>
<polygon style="fill:#F1333F;" points="350.37,87.245 253.584,87.245 253.584,207.53 276.087,207.53 276.087,139.82 350.37,139.82 
	"/>
<rect x="297.5" y="87.25" style="fill:#AE283F;" width="52.87" height="52.575"/>
<g>
</g>
<g>
</g>
<g>
</g>
<g>
</g>
<g>
</g>
<g>
</g>
<g>
</g>
<g>
</g>
<g>
</g>
<g>
</g>
<g>
</g>
<g>
</g>
<g>
</g>
<g>
</g>
<g>
</g>
</svg>
