<svg height="512pt" viewBox="-39 0 512 512.00301" width="512pt" xmlns="http://www.w3.org/2000/svg"><path d="m152.4375 250.09375h-75.390625v-92.203125h75.390625" fill="#fff"/><path d="m77.046875 250.09375 27.460937-25.648438 9.957032-9.300781 17.503906-16.347656" fill="#fff"/><path d="m250.957031 131.0625h96.929688c41.046875 0 74.324219 33.277344 74.324219 74.328125v4.398437c0 41.046876-33.277344 74.324219-74.324219 74.324219h-195.449219v-153.050781h59.960938" fill="#9ee2f8"/><path d="m212.398438 177.808594v-167.777344h38.558593v167.773438" fill="#bfb3af"/><path d="m243.605469 373.691406v-89.578125h61.113281v217.855469h-61.113281v-48.898438" fill="#bfb3af"/><path d="m250.957031 10.03125h104.316407v76.429688h-104.316407zm0 0" fill="#ff6c6c"/><path d="m265.019531 205.007812c0 18.414063-14.929687 33.339844-33.339843 33.339844-18.414063 0-33.339844-14.925781-33.339844-33.339844 0-18.414062 14.925781-33.339843 33.339844-33.339843 18.410156 0 33.339843 14.925781 33.339843 33.339843zm0 0" fill="#bfb3af"/><path d="m43.082031 158.1875h-28.917969c-5.539062 0-10.03125 4.492188-10.03125 10.03125 0 5.542969 4.492188 10.03125 10.03125 10.03125h28.917969c5.539063 0 10.03125-4.488281 10.03125-10.03125 0-5.539062-4.488281-10.03125-10.03125-10.03125zm0 0"/><path d="m43.082031 190.800781h-14.457031c-5.539062 0-10.03125 4.488281-10.03125 10.03125 0 5.539063 4.492188 10.03125 10.03125 10.03125h14.457031c5.539063 0 10.03125-4.492187 10.03125-10.03125 0-5.542969-4.488281-10.03125-10.03125-10.03125zm0 0"/><path d="m43.082031 224.382812h-33.050781c-5.539062 0-10.03125 4.492188-10.03125 10.03125 0 5.539063 4.492188 10.03125 10.03125 10.03125h33.050781c5.539063 0 10.03125-4.492187 10.03125-10.03125 0-5.539062-4.488281-10.03125-10.03125-10.03125zm0 0"/><path d="m349.207031 121.03125h-86.898437v-24.539062h94.285156c5.539062 0 10.03125-4.492188 10.03125-10.03125v-76.429688c0-5.539062-4.492188-10.03125-10.03125-10.03125h-142.875c-5.539062 0-10.03125 4.492188-10.03125 10.03125v111h-49.929688c-5.539062 0-10.03125 4.492188-10.03125 10.03125v16.800781h-65.355468c-.082032 0-.160156.007813-.238282.011719-.175781.003906-.347656.011719-.519531.023438-.167969.015624-.335937.03125-.503906.050781-.148437.019531-.292969.042969-.4375.066406-.183594.03125-.367187.066406-.550781.109375-.128906.027344-.253906.0625-.382813.097656-.1875.050782-.375.105469-.554687.164063-.128906.042969-.253906.089843-.378906.140625-.175782.066406-.34375.132812-.511719.207031-.140625.058594-.273438.128906-.410157.195313-.148437.074218-.296874.148437-.441406.230468-.144531.082032-.289062.175782-.433594.265625-.125.078125-.253906.160157-.375.242188-.148437.105469-.289062.214843-.433593.328125-.113281.085937-.226563.175781-.335938.269531-.132812.113281-.261719.234375-.394531.359375-.113281.105469-.222656.214844-.332031.324219-.109375.117187-.21875.238281-.328125.363281-.117188.132812-.230469.269531-.339844.410156-.046875.0625-.097656.117188-.148438.179688-.042968.058594-.078124.121094-.117187.179687-.109375.152344-.210937.304688-.3125.464844-.078125.125-.15625.25-.230469.378906-.085937.152344-.167968.3125-.25.46875-.070312.140625-.136718.28125-.203125.421875-.066406.152344-.125.308594-.1875.460938-.058593.15625-.117187.308594-.171875.464844-.046875.148437-.089844.300781-.132812.449218-.046875.171875-.09375.339844-.128906.511719-.035157.140625-.058594.285156-.085938.429687-.03125.1875-.0625.371094-.082031.554688-.015625.140625-.027344.277344-.039063.417969-.015625.195312-.027344.386719-.03125.582031 0 .070312-.007812.136719-.007812.207031v92.199219c0 .09375.011718.183594.011718.277344.007813.183594.015626.371094.03125.554687.011719.152344.027344.304688.046876.457031.023437.171876.046874.34375.078124.511719.03125.160157.0625.3125.097657.46875.039062.164063.078125.324219.125.484375.042969.15625.09375.308594.144531.460938.054688.15625.109375.3125.171875.46875.058594.148437.121094.292968.183594.4375.070312.152344.144531.304687.222656.453125.070313.144531.148437.28125.226563.417969.082031.144531.167968.289062.257812.429687s.183594.273437.28125.410156c.09375.128907.1875.257813.289062.382813.109376.140625.222657.273437.34375.40625.0625.074218.121094.152344.1875.226562.039063.039063.078126.074219.117188.113282.136719.140624.28125.273437.421875.40625.109375.101562.21875.203124.328125.296874.140625.121094.289062.230469.4375.339844.125.09375.242188.191406.371094.277344.148437.101562.304687.191406.460937.285156.128907.078125.253907.164063.386719.238282.199219.109374.40625.203124.617188.300781.089843.039062.179687.089843.273437.128906.609375.261719 1.253906.460937 1.917969.597656h.007812c.324219.066407.652344.117188.984375.148438.28125.027343.566407.039062.851563.042969.054687 0 .105468.007812.15625.007812h65.359375v23.992188c0 5.539062 4.492187 10.03125 10.03125 10.03125h81.136719v79.546874c0 5.542969 4.492187 10.03125 10.03125 10.03125 5.539062 0 10.03125-4.488281 10.03125-10.03125v-79.546874h41.050781v197.792968h-41.050781v-38.867187c0-5.539063-4.492188-10.03125-10.03125-10.03125-5.539063 0-10.03125 4.492187-10.03125 10.03125v38.867187h-71.472657c-5.539062 0-10.03125 4.488282-10.03125 10.03125 0 5.539063 4.492188 10.03125 10.03125 10.03125h233.785157c5.539062 0 10.03125-4.492187 10.03125-10.03125 0-5.542968-4.492188-10.03125-10.03125-10.03125h-81.140626v-197.796875h33.136719c46.511719 0 84.355469-37.839843 84.355469-84.355469v-4.398437c0-46.515625-37.84375-84.359375-84.355469-84.359375zm-116.207031 60.667969c12.851562 0 23.308594 10.453125 23.308594 23.308593 0 12.851563-10.457032 23.308594-23.308594 23.308594s-23.308594-10.457031-23.308594-23.308594c0-12.855468 10.457032-23.308593 23.308594-23.308593zm113.5625-105.269531h-84.25v-56.367188h84.25zm-122.8125-56.367188h18.496094v142.574219c-2.980469-.648438-6.074219-1-9.246094-1-3.175781 0-6.265625.351562-9.25 1zm-80.023438 173.996094-35.09375-26.136719h35.09375zm-55.328124-16.1875 29.265624 21.792968-29.265624 27.332032zm15.40625 62.191406 30.210937-28.21875 9.710937 7.234375v20.984375zm309.695312-30.273438c0 35.449219-28.84375 64.292969-64.292969 64.292969h-185.417969v-132.988281h39.898438v31.980469c-8.636719 7.929687-14.0625 19.308593-14.0625 31.933593 0 23.914063 19.457031 43.371094 43.371094 43.371094 23.917968 0 43.371094-19.457031 43.371094-43.371094 0-12.625-5.421876-24-14.058594-31.933593v-31.980469h86.894531c35.453125 0 64.292969 28.84375 64.292969 64.296875v4.398437zm0 0"/><path d="m381.875 168.183594c-4.191406-3.621094-10.554688-3.183594-14.175781 1.003906-3.625 4.191406-3.191407 10.503906 1 14.128906 1.703125 1.515625 16.296875 15.335938 4.886719 33.492188-2.949219 4.6875-1.535157 10.882812 3.15625 13.828125 1.65625 1.042969 3.503906 1.542969 5.328124 1.542969 3.335938 0 6.597657-1.664063 8.503907-4.695313 16.679687-26.542969 1.601562-50.398437-8.699219-59.300781zm0 0"/><path d="m357.394531 241.515625-.21875-.066406c-5.308593-1.589844-10.898437 1.421875-12.488281 6.726562-1.59375 5.308594 1.417969 10.898438 6.726562 12.492188l.214844.0625c.960938.289062 1.933594.425781 2.886719.425781 4.316406 0 8.300781-2.804688 9.601563-7.148438 1.59375-5.308593-1.417969-10.902343-6.722657-12.492187zm0 0"/><path d="m241.925781 423.648438.21875.066406c.960938.292968 1.9375.429687 2.894531.429687 4.308594 0 8.292969-2.800781 9.601563-7.144531 1.59375-5.304688-1.410156-10.898438-6.714844-12.496094l-.21875-.066406c-5.304687-1.597656-10.898437 1.410156-12.496093 6.714844-1.597657 5.304687 1.410156 10.902344 6.714843 12.496094zm0 0"/></svg>