<?xml version="1.0" encoding="iso-8859-1"?>
<!-- Generator: Adobe Illustrator 21.0.0, SVG Export Plug-In . SVG Version: 6.00 Build 0)  -->
<svg xmlns="http://www.w3.org/2000/svg" xmlns:xlink="http://www.w3.org/1999/xlink" version="1.1" id="Capa_1" x="0px" y="0px" viewBox="0 0 512 512" style="enable-background:new 0 0 512 512;" xml:space="preserve" width="512" height="512">
<g>
	<g>
		<g>
			<g>
				<g>
					<g>
						<g>
							<g>
								<g>
									<g>
										<circle style="fill:#4AB8F7;" cx="256" cy="256" r="256"/>
									</g>
								</g>
							</g>
						</g>
					</g>
				</g>
			</g>
		</g>
	</g>
	<path style="fill:#368DCF;" d="M512,256c0-6.862-0.278-13.658-0.807-20.383L400.329,124.754l-187.89,161.019L111.667,185L65,327   l184.923,184.923c2.02,0.047,4.045,0.077,6.077,0.077C397.385,512,512,397.385,512,256z"/>
	<g>
		<path style="fill:#2B4160;" d="M275.41,423.45c-3.902,0-7.836-0.486-11.73-1.475l-96.91-24.618    c-20.947-5.321-35.578-24.133-35.578-45.746v-81.177L322.5,305.147v71.082c0,14.671-6.642,28.251-18.223,37.257    C295.868,420.027,285.759,423.45,275.41,423.45z M271.313,391.929c4.879,1.24,9.958,0.178,13.933-2.913    c3.975-3.091,6.254-7.752,6.254-12.787v-45.2l-129.308-23.463v44.045c0,7.418,5.021,13.874,12.21,15.7L271.313,391.929z"/>
	</g>
	<g>
		<polygon style="fill:#2B4160;" points="400.329,387.246 77,307.246 77,204.754 400.329,124.754   "/>
	</g>
	<g>
		<polygon style="fill:#1E3249;" points="77,255.905 77,307.246 400.329,387.246 400.329,255.905   "/>
	</g>
	<g>
		<rect x="65" y="185" style="fill:#3F6199;" width="46.667" height="142"/>
	</g>
	<g>
		<rect x="65" y="255.905" style="fill:#2B4160;" width="46.667" height="71.095"/>
	</g>
</g>















</svg>
