<?xml version="1.0" encoding="iso-8859-1"?>
<!-- Generator: Adobe Illustrator 21.0.0, SVG Export Plug-In . SVG Version: 6.00 Build 0)  -->
<svg xmlns="http://www.w3.org/2000/svg" xmlns:xlink="http://www.w3.org/1999/xlink" version="1.1" id="Capa_1" x="0px" y="0px" viewBox="0 0 512 512" style="enable-background:new 0 0 512 512;" xml:space="preserve" width="512" height="512">
<g>
	<g>
		<g>
			<g>
				<g>
					<g>
						<g>
							<g>
								<g>
									<g>
										<circle style="fill:#FF583E;" cx="256" cy="256" r="256"/>
									</g>
								</g>
							</g>
						</g>
					</g>
				</g>
			</g>
		</g>
	</g>
	<path style="fill:#E82E21;" d="M305.017,507.292C422.95,484.421,512,380.618,512,256c0-13.707-1.09-27.158-3.165-40.282   L296.282,3.164L158.881,164.238l-46.535,142.75l89.913,89.913l-3.159,4.474L305.017,507.292z"/>
	<g>
		<path style="fill:#3F6199;" d="M296.282,3.164C283.158,1.09,269.707,0,256,0s-27.158,1.09-40.282,3.164v99.899h80.564V3.164z"/>
	</g>
	<g>
		<path style="fill:#2B4160;" d="M296.282,3.164C283.158,1.09,269.707,0,256,0c-0.032,0-0.063,0.001-0.095,0.001v103.063h40.377    V3.164z"/>
	</g>
	<g>
		<path style="fill:#2B4160;" d="M399.654,306.988H112.346v-84.621c0-79.211,64.443-143.654,143.654-143.654    s143.654,64.443,143.654,143.654V306.988z M147.346,271.988h217.309v-49.621c0-59.912-48.742-108.654-108.654-108.654    s-108.654,48.742-108.654,108.654V271.988z"/>
	</g>
	<g>
		<path style="fill:#1E3249;" d="M399.654,222.367c0-79.211-64.443-143.654-143.654-143.654c-0.032,0-0.063,0.001-0.095,0.001v35    c0.032,0,0.063-0.001,0.095-0.001c59.912,0,108.654,48.742,108.654,108.654v49.621h-108.75v35h143.75V222.367z"/>
	</g>
	<g>
		<path style="fill:#3F6199;" d="M256,424.139L256,424.139c-45.561,0-82.496-36.935-82.496-82.496v-114.31    c0-45.561,36.935-82.496,82.496-82.496h0c45.561,0,82.496,36.935,82.496,82.496v114.31    C338.496,387.204,301.561,424.139,256,424.139z"/>
	</g>
	<g>
		<path style="fill:#2B4160;" d="M256,144.837L256,144.837c-0.032,0-0.063,0.002-0.095,0.002v279.297    c0.032,0,0.063,0.002,0.095,0.002l0,0c45.561,0,82.496-36.935,82.496-82.496v-114.31C338.496,181.772,301.561,144.837,256,144.837    z"/>
	</g>
	<g>
		<rect x="205.915" y="215.832" style="fill:#2B4160;" width="100.169" height="34.168"/>
	</g>
	<g>
		<rect x="255.905" y="215.833" style="fill:#1E3249;" width="50.18" height="34.167"/>
	</g>
	<g>
		<rect x="205.915" y="272.404" style="fill:#2B4160;" width="100.169" height="34.168"/>
	</g>
	<g>
		<rect x="255.905" y="272.404" style="fill:#1E3249;" width="50.18" height="34.167"/>
	</g>
	<g>
		<rect x="205.915" y="328.976" style="fill:#2B4160;" width="100.169" height="34.168"/>
	</g>
	<g>
		<rect x="255.905" y="328.976" style="fill:#1E3249;" width="50.18" height="34.167"/>
	</g>
</g>















</svg>
