<?xml version="1.0" encoding="iso-8859-1"?>
<!-- Generator: Adobe Illustrator 21.0.0, SVG Export Plug-In . SVG Version: 6.00 Build 0)  -->
<svg xmlns="http://www.w3.org/2000/svg" xmlns:xlink="http://www.w3.org/1999/xlink" version="1.1" id="Capa_1" x="0px" y="0px" viewBox="0 0 512 512" style="enable-background:new 0 0 512 512;" xml:space="preserve" width="512" height="512">
<g>
	<g>
		<g>
			<g>
				<g>
					<g>
						<g>
							<g>
								<g>
									<g>
										<circle style="fill:#3F6199;" cx="256" cy="256" r="256"/>
									</g>
								</g>
							</g>
						</g>
					</g>
				</g>
			</g>
		</g>
	</g>
	<path style="fill:#2B4160;" d="M512,256c0-7.046-0.297-14.021-0.855-20.923L393.873,117.805l-39.795,71.829l-71.829-71.829   l-2.165,109.459L170.625,117.805L132.97,349.316l-53.09,23.476l136.084,136.084C229.009,510.925,242.379,512,256,512   C397.385,512,512,397.385,512,256z"/>
	<g>
		<g>
			<rect x="118.127" y="117.805" style="fill:#FFFFFF;" width="52.497" height="278.986"/>
		</g>
		<g>
			<rect x="79.879" y="308.295" style="fill:#FFC200;" width="128.994" height="64.497"/>
		</g>
		<g>
			<rect x="341.375" y="117.805" style="fill:#E9EDF5;" width="52.497" height="278.986"/>
		</g>
		<g>
			<rect x="303.127" y="308.295" style="fill:#FF8B00;" width="128.994" height="64.497"/>
		</g>
	</g>
	<g>
		<rect x="229.751" y="117.805" style="fill:#FFFFFF;" width="52.497" height="278.986"/>
	</g>
	<g>
		<rect x="255.905" y="117.805" style="fill:#E9EDF5;" width="26.344" height="278.986"/>
	</g>
	<g>
		<rect x="191.503" y="156.561" style="fill:#FFC200;" width="128.994" height="64.497"/>
	</g>
	<g>
		<rect x="255.905" y="156.561" style="fill:#FF8B00;" width="64.592" height="64.497"/>
	</g>
</g>















</svg>
