<?xml version="1.0" encoding="iso-8859-1"?>
<!-- Generator: Adobe Illustrator 21.0.0, SVG Export Plug-In . SVG Version: 6.00 Build 0)  -->
<svg xmlns="http://www.w3.org/2000/svg" xmlns:xlink="http://www.w3.org/1999/xlink" version="1.1" id="Capa_1" x="0px" y="0px" viewBox="0 0 512 512" style="enable-background:new 0 0 512 512;" xml:space="preserve" width="512" height="512">
<g>
	<g>
		<g>
			<g>
				<g>
					<g>
						<g>
							<g>
								<g>
									<circle style="fill:#FFC200;" cx="256" cy="256" r="256"/>
								</g>
							</g>
						</g>
					</g>
				</g>
			</g>
		</g>
	</g>
</g>
<path style="fill:#FF8B00;" d="M83.698,338.383l173.601,173.601C398.085,511.283,512,396.951,512,256  c0-11.906-0.831-23.616-2.404-35.089L355.383,66.698L83.698,338.383z"/>
<g>
	<path style="fill:#3F6199;" d="M221,509.608c11.445,1.565,23.125,2.392,35,2.392s23.555-0.827,35-2.392V398h-70V509.608z"/>
</g>
<g>
	<path style="fill:#2B4160;" d="M255.905,398v113.999c0.032,0,0.063,0.001,0.095,0.001c11.875,0,23.555-0.827,35-2.392V398H255.905z   "/>
</g>
<g>
	<rect x="175.869" y="158.869" style="fill:#3F6199;" width="160.262" height="160.262"/>
</g>
<g>
	<rect x="255.905" y="158.869" style="fill:#2B4160;" width="80.226" height="160.262"/>
</g>
<g>
	<polygon style="fill:#2B4160;" points="175.869,319.131 83.698,338.383 83.698,139.617 175.869,158.869  "/>
</g>
<g>
	<polygon style="fill:#1E3249;" points="336.131,158.869 428.302,139.617 428.302,338.383 336.131,319.131  "/>
</g>
<g>
	<polygon style="fill:#2B4160;" points="175.869,158.869 156.617,66.698 355.383,66.698 336.131,158.869  "/>
</g>
<g>
	<polygon style="fill:#1E3249;" points="355.383,66.698 255.905,66.698 255.905,158.869 336.131,158.869  "/>
</g>
<g>
	<polygon style="fill:#2B4160;" points="336.131,319.131 355.383,411.302 156.617,411.302 175.869,319.131  "/>
</g>
<g>
	<polygon style="fill:#1E3249;" points="336.131,319.131 255.905,319.131 255.905,411.302 355.383,411.302  "/>
</g>
<g>
	<circle style="fill:#FFFFFF;" cx="256" cy="239" r="56.792"/>
</g>
<g>
	<path style="fill:#E9EDF5;" d="M256,182.208c-0.032,0-0.063,0.002-0.095,0.002v113.58c0.032,0,0.063,0.002,0.095,0.002   c31.366,0,56.792-25.427,56.792-56.792C312.792,207.634,287.366,182.208,256,182.208z"/>
</g>















</svg>
