<?xml version="1.0" encoding="iso-8859-1"?>
<!-- Generator: Adobe Illustrator 19.0.0, SVG Export Plug-In . SVG Version: 6.00 Build 0)  -->
<svg xmlns="http://www.w3.org/2000/svg" xmlns:xlink="http://www.w3.org/1999/xlink" version="1.1" id="Layer_1" x="0px" y="0px" viewBox="0 0 512 512" style="enable-background:new 0 0 512 512;" xml:space="preserve" width="512" height="512">
<g>
	<circle style="fill:#61D7A8;" cx="256" cy="256" r="256"/>
	<path style="fill:#00AB94;" d="M295.925,508.895c118.667-18.585,210.29-118.681,215.798-241.206L330.066,86.032L229.657,186.441   l0.344,0.344L121.97,294.816l123.181,123.181l-20.062,20.062L295.925,508.895z"/>
	<g>
		<rect x="225.063" y="344.5" style="fill:#537983;" width="61.875" height="93.5"/>
		<rect x="256" y="344.5" style="fill:#3E5959;" width="30.938" height="93.5"/>
		<g>
			<path style="fill:#3E5959;" d="M390.063,146.706l-86.419,26.401L330.044,86H181.956l26.401,87.106l-86.419-26.401v148.087     l86.419-26.399l-26.401,86.419h148.089l-26.401-86.419l86.419,26.399V146.706z"/>
		</g>
		<polygon style="fill:#293939;" points="390.063,294.793 303.644,268.394 330.044,354.813 256,354.813 256,86 330.044,86     303.644,173.106 390.063,146.706   "/>
		<g>
			<path style="fill:#FFDA2D;" d="M256,148.563c-39.806,0-72.188,32.381-72.188,72.188s32.381,72.188,72.188,72.188     s72.188-32.381,72.188-72.188S295.806,148.563,256,148.563z"/>
		</g>
		<path style="fill:#FDBF00;" d="M328.188,220.75c0,39.806-32.381,72.188-72.188,72.188V148.563    C295.806,148.563,328.188,180.944,328.188,220.75z"/>
		<g>
			<path style="fill:#FDBF00;" d="M256,189.813c-17.119,0-30.938,13.818-30.938,30.938c0,17.118,13.818,30.938,30.938,30.938     s30.938-13.82,30.938-30.938C286.938,203.631,273.119,189.813,256,189.813z"/>
		</g>
		<path style="fill:#FF9100;" d="M286.938,220.75c0,17.118-13.818,30.938-30.938,30.938v-61.875    C273.119,189.813,286.938,203.631,286.938,220.75z"/>
	</g>
</g>















</svg>
