<svg height="512pt" viewBox="-7 0 512 512.00002" width="512pt" xmlns="http://www.w3.org/2000/svg"><path d="m161.386719 456.785156h-76.535157v-164.015625c0-21.136719 17.132813-38.269531 38.269532-38.269531 21.132812 0 38.269531 17.132812 38.269531 38.269531v164.015625zm0 0" fill="#e0e0e0"/><path d="m123.121094 254.5c-2.082032 0-4.121094.171875-6.113282.492188 2.792969 5.3125 4.382813 11.355468 4.382813 17.777343v139.972657c0 13.277343-10.765625 24.042968-24.042969 24.042968h-12.496094v20h76.539063v-164.015625c-.003906-21.136719-17.136719-38.269531-38.269531-38.269531zm0 0" fill="#bdbdbd"/><path d="m299.238281 341.28125 27.9375-16.128906-126.121093-218.453125-27.941407 16.132812c-9.863281 5.695313-13.242187 18.308594-7.546875 28.171875l105.496094 182.730469c5.695312 9.863281 18.308594 13.242187 28.175781 7.546875zm0 0" fill="#757575"/><path d="m201.054688 106.699219-21.339844 12.320312 93.339844 161.671875c7.796874 13.507813 3.167968 30.78125-10.339844 38.582032l8.347656 14.457031c5.695312 9.867187 18.308594 13.246093 28.175781 7.550781l27.9375-16.132812zm0 0" fill="#424242"/><path d="m138.371094 293.578125c0 8.421875-6.828125 15.253906-15.25 15.253906-8.425782 0-15.253906-6.832031-15.253906-15.253906s6.828124-15.25 15.253906-15.25c8.421875 0 15.25 6.828125 15.25 15.25zm0 0" fill="#757575"/><path d="m227.808594 504.5h-209.378906v-19.550781c0-15.554688 12.609374-28.164063 28.164062-28.164063h153.050781c15.554688 0 28.164063 12.609375 28.164063 28.164063zm0 0" fill="#e0e0e0"/><path d="m199.644531 456.785156h-13.042969c.78125 2.585938 1.207032 5.324219 1.207032 8.164063 0 10.796875-8.753906 19.550781-19.550782 19.550781h-149.816406c-.003906.003906-.003906.007812-.007812.011719v19.988281h209.375v-19.550781c0-15.554688-12.609375-28.164063-28.164063-28.164063zm0 0" fill="#bdbdbd"/><path d="m135.800781 456.785156h-25.363281v-93.75c0-7.003906 5.679688-12.683594 12.683594-12.683594 7 0 12.679687 5.679688 12.679687 12.683594zm0 0" fill="#757575"/><path d="m357.929688 7.5-121.542969 160.402344 55.453125 96.046875 199.683594-25.054688c0-95.457031-50.925782-183.664062-133.59375-231.394531zm0 0" fill="#ffca28"/><path d="m357.929688 7.5-3.835938 5.0625c41.808594 34.386719 72.015625 80.574219 86.925781 132.136719 11.070313 38.28125-14.84375 77.375-54.382812 82.335937l-108.265625 13.585938 13.46875 23.328125 199.683594-25.054688c0-95.457031-50.925782-183.664062-133.59375-231.394531zm0 0" fill="#ffa000"/><path d="m288.867188 258.792969c14.710937-16.296875 17.996093-40.828125 6.425781-60.867188-11.570313-20.039062-34.457031-29.460937-55.929688-24.867187zm0 0" fill="#ffe082"/><path d="m84.851562 292.769531c0-21.136719 17.132813-38.269531 38.269532-38.269531 21.132812 0 38.269531 17.132812 38.269531 38.269531v87.257813l102.300781-59.066406-94-162.8125-125.53125 72.476562c-7.464844 4.308594-10.023437 13.855469-5.710937 21.320312l46.402343 80.375zm0 0" fill="#757575"/><path d="m169.691406 158.148438-21.339844 12.320312 46.023438 79.71875c16.191406 28.039062 6.582031 63.898438-21.460938 80.089844l-11.527343 6.652344v43.09375l102.304687-59.0625zm0 0" fill="#424242"/><path d="m84.851562 332.320312-41.191406-71.34375-21.890625 12.636719c-13.636719 7.875-18.3125 25.316407-10.4375 38.953125l39.527344 68.464844c6.945313 12.03125 21.332031 17.078125 33.992187 12.699219zm0 0" fill="#424242"/><path d="m123.117188 270.828125c-12.542969 0-22.75 10.207031-22.75 22.75 0 12.546875 10.207031 22.75 22.75 22.75 12.546874 0 22.753906-10.203125 22.753906-22.75 0-12.542969-10.207032-22.75-22.753906-22.75zm0 30.503906c-4.273438 0-7.75-3.480469-7.75-7.753906s3.476562-7.75 7.75-7.75c4.277343 0 7.753906 3.476563 7.753906 7.75s-3.476563 7.753906-7.753906 7.753906zm0 0"/><path d="m361.679688 1.007812c-3.273438-1.894531-7.445313-1.0507808-9.730469 1.964844l-114.714844 151.394532-29.683594-51.417969c-2.070312-3.582031-6.65625-4.8125-10.246093-2.742188l-27.9375 16.128907c-12.621094 7.285156-18.699219 23.871093-9.921876 39.070312l-41.113281 23.734375c-3.585937 2.070313-4.816406 6.660156-2.746093 10.246094 2.070312 3.589843 6.660156 4.816406 10.246093 2.746093l41.113281-23.738281 86.5 149.824219-84.554687 48.816406v-74.265625c0-25.238281-20.53125-45.769531-45.769531-45.769531-25.238282 0-45.769532 20.53125-45.769532 45.769531v11.558594c-4.082031-7.070313-28.3125-49.035156-32.410156-56.132813-2.234375-3.871093-.902344-8.839843 2.96875-11.078124l47.609375-27.488282c3.585938-2.070312 4.816407-6.65625 2.746094-10.242187-2.070313-3.589844-6.660156-4.816407-10.246094-2.746094l-47.609375 27.488281c-11.035156 6.371094-14.828125 20.53125-8.457031 31.566406l1.460937 2.535157-15.394531 8.886719c-17.238281 9.953124-23.136719 31.957031-13.179687 49.199218l39.527344 68.464844c6.804687 11.785156 19.625 18.621094 32.984374 17.964844v46.539062h-30.757812c-19.664062 0-35.664062 15.996094-35.664062 35.664063v19.550781c0 4.140625 3.359374 7.5 7.5 7.5h125.226562c4.144531 0 7.5-3.359375 7.5-7.5 0-4.144531-3.355469-7.5-7.5-7.5h-117.726562v-12.050781c0-11.394531 9.269531-20.664063 20.664062-20.664063h153.050781c11.394531 0 20.664063 9.269532 20.664063 20.664063v12.050781h-41.648438c-4.144531 0-7.5 3.359375-7.5 7.5s3.355469 7.5 7.5 7.5h49.148438c4.140625 0 7.5-3.359375 7.5-7.5v-19.550781c0-19.664063-16-35.664063-35.664063-35.664063h-30.753906v-64.929687l92.054687-53.148438 3.625 6.277344c7.738282 13.40625 24.898438 18.097656 38.417969 10.292969l27.9375-16.128906c3.585938-2.070313 4.816407-6.660157 2.746094-10.246094l-29.6875-51.417969 71.269531-8.941406c4.109375-.515625 7.023438-4.265625 6.507813-8.375s-4.265625-7.03125-8.375-6.507813l-72.507813 9.097656c24.945313-40.183593-5.089844-92.347656-52.445312-90.832031l111.425781-147.054687c74.878906 45.832031 121.828125 127.152344 124.078125 214.914062l-75.824219 9.515625c-4.109375.515625-7.023437 4.265625-6.507812 8.375s4.257812 7.027344 8.375 6.507813l82.476562-10.347656c3.753907-.472657 6.566407-3.660157 6.566407-7.441407 0-98.03125-52.316407-188.796875-137.34375-237.886719zm-304.324219 376.273438-39.527344-68.464844c-5.808594-10.058594-2.371094-22.898437 7.691406-28.707031l15.394531-8.890625 36.4375 63.109375v53.386719c-7.960937.683594-15.851562-3.253906-19.996093-10.433594zm70.945312 72.003906h-10.363281v-86.25c0-2.859375 2.324219-5.183594 5.183594-5.183594 2.855468 0 5.179687 2.324219 5.179687 5.183594zm15 0v-86.25c0-11.128906-9.054687-20.183594-20.183593-20.183594-11.125 0-20.179688 9.054688-20.179688 20.183594v86.25h-10.585938c0-7.261718 0-148.902344 0-156.515625 0-16.96875 13.800782-30.769531 30.769532-30.769531 16.964844 0 30.769531 13.800781 30.769531 30.769531v156.515625zm152.1875-114.496094c-6.28125 3.625-14.304687 1.476563-17.929687-4.804687l-105.5-182.730469c-3.625-6.28125-1.476563-14.300781 4.804687-17.925781l21.445313-12.382813c1.773437 3.078126 114.628906 198.546876 118.621094 205.460938zm-5.964843-89.855468c-3.699219-6.40625-33.328126-57.726563-37.824219-65.515625 32.882812 1.023437 53.398437 36.488281 37.824219 65.515625zm0 0"/><path d="m455.460938 223.539062c3.257812 2.558594 7.972656 1.992188 10.527343-1.265624 2.558594-3.257813 1.992188-7.972657-1.265625-10.53125-52.839844-41.484376-87.175781-100.957032-96.683594-167.460938-.585937-4.097656-4.390624-6.953125-8.484374-6.359375-4.101563.585937-6.949219 4.382813-6.363282 8.484375 10 69.941406 46.566406 133.402344 102.269532 177.132812zm0 0"/></svg>