<?xml version="1.0" encoding="iso-8859-1"?>
<!-- Generator: Adobe Illustrator 21.0.0, SVG Export Plug-In . SVG Version: 6.00 Build 0)  -->
<svg xmlns="http://www.w3.org/2000/svg" xmlns:xlink="http://www.w3.org/1999/xlink" version="1.1" id="Capa_1" x="0px" y="0px" viewBox="0 0 512 512" style="enable-background:new 0 0 512 512;" xml:space="preserve" width="512" height="512">
<g>
	<g>
		<g>
			<g>
				<g>
					<g>
						<g>
							<g>
								<g>
									<g>
										<circle style="fill:#3F6199;" cx="256" cy="256" r="256"/>
									</g>
								</g>
							</g>
						</g>
					</g>
				</g>
			</g>
		</g>
	</g>
	<path style="fill:#2B4160;" d="M512,256c0-13.756-1.099-27.254-3.188-40.423l-84.071-84.071L68.509,389.039l111.49,111.489   C204.011,507.983,229.536,512,256,512C397.385,512,512,397.385,512,256z"/>
	<g>
		<rect x="87.258" y="131.506" style="fill:#20354F;" width="337.483" height="248.988"/>
	</g>
	<g>
		<rect x="255.905" y="131.506" style="fill:#15293F;" width="168.837" height="248.987"/>
	</g>
	<g>
		<path style="fill:#FF583E;" d="M143.032,380.494H87.258V131.506h111.271l-2.283,40.306C194.017,211.157,167.3,244.856,129.5,256    l0,0L143.032,380.494z"/>
	</g>
	<g>
		<path style="fill:#E82E21;" d="M368.968,380.494h55.774V131.506H313.471l2.283,40.306C317.983,211.157,344.7,244.856,382.5,256    l0,0L368.968,380.494z"/>
	</g>
	<g>
		<rect x="68.509" y="351.102" style="fill:#6586B7;" width="374.981" height="37.937"/>
	</g>
	<g>
		<rect x="255.905" y="351.102" style="fill:#3F6199;" width="187.586" height="37.937"/>
	</g>
</g>















</svg>
