<svg height="512pt" viewBox="0 0 512 512" width="512pt" xmlns="http://www.w3.org/2000/svg"><path d="m504.425781 7.574219h-496.851562v76.75h496.851562zm0 0" fill="#cdcdcd"/><path d="m490.289062 7.574219v52.511719c0 5.578124-4.523437 10.101562-10.101562 10.101562h-472.613281v14.136719h496.851562v-76.75zm0 0" fill="#aaa"/><path d="m80.285156 391.320312h351.429688v113.105469h-351.429688zm0 0" fill="#607882"/><path d="m409.5 391.320312h22.214844v113.105469h-22.214844zm0 0" fill="#495959"/><path d="m155.015625 354.964844h201.96875v36.355468h-201.96875zm0 0" fill="#ef75a7"/><path d="m343.859375 354.964844v15.148437c0 4.460938-3.617187 8.078125-8.082031 8.078125h-180.761719v13.128906h201.96875v-36.355468zm0 0" fill="#eb5793"/><path d="m356.984375 256h74.730469v135.320312h-74.730469zm0 0" fill="#cdcdcd"/><path d="m420.605469 256v114.113281c0 5.578125-4.519531 10.101563-10.097657 10.101563h-53.523437v11.105468h74.730469v-135.320312zm0 0" fill="#aaa"/><path d="m409.5 350.925781c0 8.367188-6.78125 15.148438-15.148438 15.148438-8.367187 0-15.148437-6.78125-15.148437-15.148438 0-8.363281 6.78125-15.148437 15.148437-15.148437 8.367188 0 15.148438 6.785156 15.148438 15.148437zm0 0" fill="#607882"/><path d="m409.5 296.394531c0 8.367188-6.78125 15.148438-15.148438 15.148438-8.367187 0-15.148437-6.78125-15.148437-15.148438 0-8.367187 6.78125-15.148437 15.148437-15.148437 8.367188 0 15.148438 6.78125 15.148438 15.148437zm0 0" fill="#607882"/><path d="m80.285156 256h74.730469v135.320312h-74.730469zm0 0" fill="#cdcdcd"/><path d="m143.90625 256v114.113281c0 5.578125-4.523438 10.101563-10.101562 10.101563h-53.519532v11.105468h74.730469v-135.320312zm0 0" fill="#aaa"/><g fill="#607882"><path d="m132.796875 350.925781c0 8.367188-6.78125 15.148438-15.148437 15.148438-8.367188 0-15.148438-6.78125-15.148438-15.148438 0-8.363281 6.78125-15.148437 15.148438-15.148437 8.367187 0 15.148437 6.785156 15.148437 15.148437zm0 0"/><path d="m132.796875 296.394531c0 8.367188-6.78125 15.148438-15.148437 15.148438-8.367188 0-15.148438-6.78125-15.148438-15.148438 0-8.367187 6.78125-15.148437 15.148438-15.148437 8.367187 0 15.148437 6.78125 15.148437 15.148437zm0 0"/><path d="m280.238281 108.558594c0-13.382813-10.851562-24.234375-24.238281-24.234375s-24.238281 10.851562-24.238281 24.234375v14.140625h48.472656v-14.140625zm0 0"/></g><path d="m256 84.324219c-2.460938 0-4.832031.367187-7.070312 1.046875 9.9375 3.027344 17.167968 12.261718 17.167968 23.1875v14.136718h14.140625v-14.136718c0-13.382813-10.851562-24.234375-24.238281-24.234375zm0 0" fill="#495959"/><path d="m227.722656 147.945312 4.039063-25.246093h48.476562l4.039063 25.246093zm0 0" fill="#fff263"/><path d="m393.339844 108.558594c0-13.382813-10.851563-24.234375-24.234375-24.234375-13.386719 0-24.238281 10.851562-24.238281 24.234375v14.140625h48.472656zm0 0" fill="#607882"/><path d="m369.105469 84.324219c-2.460938 0-4.832031.367187-7.070313 1.046875 9.9375 3.027344 17.167969 12.261718 17.167969 23.1875v14.136718h14.140625v-14.136718c-.003906-13.382813-10.855469-24.234375-24.238281-24.234375zm0 0" fill="#495959"/><path d="m340.828125 147.945312 4.039063-25.246093h48.472656l4.042968 25.246093zm0 0" fill="#fff263"/><path d="m167.132812 108.558594c0-13.382813-10.851562-24.234375-24.238281-24.234375s-24.238281 10.851562-24.238281 24.234375v14.140625h48.476562zm0 0" fill="#607882"/><path d="m142.894531 84.324219c-2.460937 0-4.832031.367187-7.070312 1.046875 9.9375 3.027344 17.167969 12.261718 17.167969 23.1875v14.136718h14.140624v-14.136718c0-13.382813-10.851562-24.234375-24.238281-24.234375zm0 0" fill="#495959"/><path d="m114.617188 147.945312 4.042968-25.246093h48.472656l4.039063 25.246093zm0 0" fill="#fff263"/><path d="m512 7.574219c0-4.183594-3.390625-7.574219-7.574219-7.574219h-380.261719c-4.179687 0-7.570312 3.390625-7.570312 7.574219 0 4.183593 3.390625 7.574219 7.570312 7.574219h372.6875v61.601562h-481.703124v-61.601562h73.71875c4.183593 0 7.574218-3.390626 7.574218-7.574219 0-4.183594-3.390625-7.574219-7.574218-7.574219h-81.292969c-4.183594 0-7.574219 3.390625-7.574219 7.574219v496.851562c0 4.183594 3.390625 7.574219 7.574219 7.574219 2.089843 0 3.984375-.847656 5.355469-2.21875l31-31 30.996093 31c1.371094 1.371094 3.265625 2.21875 5.359375 2.21875h351.429688c2.09375 0 3.988281-.847656 5.359375-2.21875l30.996093-31 31 31c1.371094 1.371094 3.265626 2.21875 5.355469 2.21875 4.183594 0 7.574219-3.390625 7.574219-7.574219zm-352.441406 100.984375v6.566406h-33.324219v-6.566406c0-9.1875 7.472656-16.660156 16.660156-16.660156 9.191407 0 16.664063 7.472656 16.664063 16.660156zm-48.472656 0v13.539062l-3.945313 24.648438c-.660156 4.132812 2.152344 8.015625 6.28125 8.679687 4.128906.664063 8.015625-2.152343 8.675781-6.285156l3.019532-18.867187h35.558593l3.015625 18.867187c.597656 3.726563 3.816406 6.378906 7.46875 6.378906 1.023438 0 2.082032-.203125 3.117188-.664062 3.179687-1.421875 4.878906-4.941407 4.328125-8.378907l-3.902344-24.378906v-13.539062c0-6.105469-1.730469-11.8125-4.726563-16.660156h58.9375c-2.992187 4.847656-4.726562 10.554687-4.726562 16.660156v13.539062l-3.945312 24.648438c-.660157 4.132812 2.152343 8.015625 6.28125 8.679687 4.128906.664063 8.015624-2.152343 8.675781-6.285156l3.019531-18.867187h35.558594l3.019531 18.867187c.59375 3.726563 3.8125 6.378906 7.46875 6.378906 1.019531 0 2.082031-.203125 3.113281-.664062 3.179688-1.421875 4.878906-4.941407 4.328125-8.378907l-3.898437-24.378906v-13.539062c0-6.105469-1.734375-11.8125-4.730469-16.660156h58.941406c-2.996093 4.847656-4.730469 10.554687-4.730469 16.660156v13.539062l-3.941406 24.648438c-.664062 4.132812 2.148438 8.015625 6.28125 8.679687 4.132813.664063 8.015625-2.152343 8.675782-6.285156l3.019531-18.867187h35.554687l3.019532 18.867187c.59375 3.726563 3.8125 6.378906 7.46875 6.378906 1.019531 0 2.082031-.203125 3.113281-.664062 3.183593-1.421875 4.878906-4.941407 4.332031-8.378907l-3.902344-24.378906v-13.539062c0-6.105469-1.734375-11.8125-4.726562-16.660156h27.953125v156.527343h-67.15625c-4.183594 0-7.574219 3.390625-7.574219 7.574219v26.476562c0 4.144532 3.195312 7.761719 7.339844 7.886719 4.289062.128907 7.808594-3.308593 7.808594-7.570312v-19.21875h59.582031v120.171875h-59.578125v-65.226563c0-4.148437-3.195313-7.765625-7.339844-7.886719-4.289062-.128906-7.808594 3.308594-7.808594 7.566407v29.191406h-54.582031l-26.207031-30.570313v-79.503906h8.269531c4.144531 0 7.761719-3.195312 7.886719-7.339844.128906-4.289062-3.308594-7.808593-7.570313-7.808593h-18.554687c-1.980469-2.792969-5.023438-4.800781-8.507813-5.371094-9.019531-1.480469-16.703125 6.246094-15.152343 15.277344.941406 5.472656 5.230468 9.714843 10.707031 10.613281 2.800781.460938 5.46875.03125 7.777343-1.046875v75.179687l-26.207031 30.570313h-64.679687v-91.390625c0-4.183594-3.394532-7.574219-7.574219-7.574219h-67.15625c0-52.175781 0-104.351562 0-156.527343h27.953125c-2.996094 4.847656-4.726562 10.554687-4.726562 16.660156zm161.578124 0v6.566406h-33.324218v-6.566406c0-9.1875 7.472656-16.660156 16.660156-16.660156s16.664062 7.472656 16.664062 16.660156zm113.101563 0v6.566406h-33.324219v-6.566406c0-9.1875 7.476563-16.660156 16.664063-16.660156s16.660156 7.472656 16.660156 16.660156zm111.085937 101.890625-28.78125 28.78125-28.78125-28.78125v-7.464844h57.5625zm0 86.449219h-57.5625v-7.464844l28.78125-28.78125 28.78125 28.78125zm0 22.617187-28.78125 28.78125-28.78125-28.78125v-7.46875h57.5625zm0 86.449219h-57.5625v-7.464844l28.78125-28.78125 28.78125 28.78125zm-57.5625-283.160156 18.070313 18.070312-18.070313 18.070312zm0 254.269531v-36.136719l18.070313 18.070312zm0-109.0625v-36.140625l18.070313 18.070312zm0-80.175781v-7.46875l28.78125-28.78125 28.78125 28.78125v7.46875zm39.492188-46.960938 18.070312-18.070312v36.140624zm18.070312-39.492188-28.78125 28.78125-28.78125-28.78125v-9.484374h57.5625zm-249.628906 246.011719 6.253906-7.296875v7.296875zm21.398438-7.300781 6.257812 7.296875h-6.257812zm-180.761719 43.652344v-120.171875h59.582031v120.171875zm-72.710937 14.75 28.78125-28.777344 28.78125 28.777344v7.46875h-57.5625zm0-86.449219h57.5625v7.464844l-28.78125 28.78125-28.78125-28.78125zm0-22.613281 28.78125-28.78125 28.78125 28.78125v7.464844h-57.5625zm0-86.453125h57.5625v7.46875l-28.78125 28.78125-28.78125-28.78125zm57.5625 28.890625v36.140625l-18.070313-18.070313zm0 109.066406v36.136719l-18.070313-18.066407zm0-181.992188-18.070313-18.070312 18.070313-18.070312zm0 21.421876v7.46875h-57.5625v-7.46875l28.78125-28.78125zm-57.5625-21.421876v-36.140624l18.070312 18.070312zm18.070312 90.996094-18.070312 18.070313v-36.140625zm0 109.066406-18.070312 18.066407v-36.136719zm-18.070312 62.105469h57.5625v7.464844l-28.78125 28.78125-28.78125-28.78125zm72.710937-22.21875h91.855469c4.183594 0 7.574218-3.390625 7.574218-7.574219 0-4.183593-3.390624-7.574218-7.574218-7.574218h-17.125v-21.207032h186.820312v21.207032h-134.226562c-4.179688 0-7.574219 3.390625-7.574219 7.574218 0 4.183594 3.394531 7.574219 7.574219 7.574219h208.957031v97.957031h-336.28125zm351.429687 22.21875h57.5625v7.464844l-28.78125 28.78125-28.78125-28.78125zm39.492188-62.105469 18.070312-18.070312v36.136719zm0-109.066406 18.070312-18.070312v36.140625zm-406.070312-158.042968v9.484374l-28.78125 28.78125-28.78125-28.78125v-9.484374zm-57.5625 394.242187v-36.140625l18.070312 18.070312zm57.5625-36.140625v36.140625l-18.070313-18.070313zm366.578124 36.140625v-36.140625l18.070313 18.070312zm57.5625-36.140625v36.140625l-18.070312-18.070313zm0 0"/><path d="m394.351562 373.648438c12.527344 0 22.722657-10.191407 22.722657-22.722657 0-12.527343-10.195313-22.722656-22.722657-22.722656-12.53125 0-22.722656 10.195313-22.722656 22.722656 0 12.53125 10.191406 22.722657 22.722656 22.722657zm0-30.296876c4.175782 0 7.574219 3.398438 7.574219 7.574219 0 4.179688-3.398437 7.574219-7.574219 7.574219-4.175781 0-7.574218-3.394531-7.574218-7.574219 0-4.175781 3.398437-7.574219 7.574218-7.574219zm0 0"/><path d="m394.351562 319.117188c12.527344 0 22.722657-10.195313 22.722657-22.722657 0-12.53125-10.195313-22.722656-22.722657-22.722656-12.53125 0-22.722656 10.191406-22.722656 22.722656s10.191406 22.722657 22.722656 22.722657zm0-30.296876c4.175782 0 7.574219 3.398438 7.574219 7.574219s-3.398437 7.574219-7.574219 7.574219c-4.175781 0-7.574218-3.398438-7.574218-7.574219s3.398437-7.574219 7.574218-7.574219zm0 0"/><path d="m117.648438 328.203125c-12.527344 0-22.722657 10.195313-22.722657 22.722656 0 12.53125 10.195313 22.722657 22.722657 22.722657 12.53125 0 22.722656-10.191407 22.722656-22.722657 0-12.527343-10.191406-22.722656-22.722656-22.722656zm0 30.296875c-4.175782 0-7.574219-3.394531-7.574219-7.574219 0-4.175781 3.398437-7.574219 7.574219-7.574219 4.175781 0 7.574218 3.398438 7.574218 7.574219 0 4.179688-3.398437 7.574219-7.574218 7.574219zm0 0"/><path d="m117.648438 273.671875c-12.527344 0-22.722657 10.195313-22.722657 22.722656 0 12.53125 10.195313 22.722657 22.722657 22.722657 12.53125 0 22.722656-10.191407 22.722656-22.722657s-10.191406-22.722656-22.722656-22.722656zm0 30.296875c-4.175782 0-7.574219-3.398438-7.574219-7.574219s3.398437-7.574219 7.574219-7.574219c4.175781 0 7.574218 3.398438 7.574218 7.574219s-3.398437 7.574219-7.574218 7.574219zm0 0"/></svg>