<svg id="Capa_1" enable-background="new 0 0 512 512" height="512" viewBox="0 0 512 512" width="512" xmlns="http://www.w3.org/2000/svg"><circle cx="256" cy="256" fill="#ffe400" r="256"/><path d="m512 256c0 87.11-43.52 164.07-110 210.31-41.41 28.8-91.73 45.69-146 45.69s-104.59-16.89-146-45.69c-66.48-46.24-110-123.2-110-210.31 0-46.22 12.25-89.57 33.68-127 44.12 77.07 127.16 129 222.32 129s178.21-51.93 222.32-129c21.43 37.43 33.68 80.78 33.68 127z" fill="#fed110"/><path d="m431.566 170.717-21.559 16.305-141.554 127.075-.679-192.159-24.602.097.679 192.159-164.071-142.09c-2.48 8.858-3.783 18.212-3.744 27.87l180.274 154.155 179.22-155.573c-.038-9.658-1.424-19.002-3.964-27.839z" fill="#4e689b"/><path d="m435.53 198.557-179.22 155.572-.836-232.142 12.301-.049.679 192.159 141.554-127.076 21.559-16.305c2.539 8.838 3.925 18.182 3.963 27.841z" fill="#374c81"/><path d="m267.775 121.938 1.023 259.442-12.255 11.852-12.348-11.755-1.023-259.442z" fill="#374c81"/><path d="m267.775 121.938 1.023 259.442-12.255 11.852-1.07-271.245z" fill="#323b5a"/><path d="m435.53 198.56-179.71.7h-.04l-89.71.35-90.03.36c-.4-99.27 79.75-180.06 179.03-180.45h.72c98.94 0 179.35 80 179.74 179.04z" fill="#369cef"/><path d="m435.53 198.56-179.71.7h-.04l-89.71.71v-.36c-.1-99.11 39.86-179.7 89.36-180.09h.36c98.94 0 179.35 80 179.74 179.04z" fill="#008add"/><path d="m335.62 499.37c-24.79 8.11-51.25 12.53-78.73 12.62-.3.01-.59.01-.89.01-27.18 0-53.36-4.24-77.94-12.09l-.54-136.99c-.01-4.51 3.63-8.19 8.14-8.2l141.22-.56c4.51-.02 8.19 3.63 8.2 8.14z" fill="#f4863d"/><path d="m335.62 499.37c-24.79 8.11-51.25 12.53-78.73 12.62l-.62-157.55 70.61-.28c4.51-.02 8.19 3.63 8.2 8.14z" fill="#ec781b"/><path d="m313.474 381.823.404 102.34c.013 3.272-2.629 5.934-5.9 5.947l-102.34.404c-3.272.013-5.934-2.629-5.947-5.9l-.404-102.34c-.013-3.272 2.628-5.934 5.9-5.947l102.34-.404c3.271-.013 5.934 2.628 5.947 5.9z" fill="#ff9d66"/><path d="m313.474 381.823.404 102.34c.013 3.272-2.629 5.934-5.9 5.947l-51.17.202-.45-114.187 51.17-.202c3.27-.013 5.933 2.628 5.946 5.9z" fill="#f4863d"/><path d="m275.77 354.361.126 31.884c.015 3.814-3.069 6.922-6.883 6.937l-25.178.099c-3.814.015-6.922-3.069-6.937-6.883l-.126-31.884z" fill="#fff"/><path d="m275.77 354.361.126 31.884c.015 3.814-3.069 6.922-6.883 6.937l-12.589.05-.153-38.794z" fill="#d1f6ff"/><path d="m303.469 480.508-36.588.144c-2.858.011-5.183-2.296-5.195-5.154-.011-2.858 2.296-5.184 5.154-5.195l36.588-.144c2.858-.011 5.183 2.296 5.195 5.154.011 2.858-2.296 5.184-5.154 5.195z" fill="#323b5a"/><path d="m303.393 461.191-36.588.144c-2.858.011-5.183-2.296-5.195-5.154-.011-2.858 2.296-5.184 5.154-5.195l36.588-.144c2.858-.011 5.183 2.296 5.195 5.154.011 2.858-2.296 5.184-5.154 5.195z" fill="#323b5a"/><path d="m435.53 198.56-179.71.7-.71-179.74c99.25-.37 180.03 79.77 180.42 179.04z" fill="#0077c8"/></svg>