<?xml version="1.0" encoding="iso-8859-1"?>
<!-- Generator: Adobe Illustrator 21.0.0, SVG Export Plug-In . SVG Version: 6.00 Build 0)  -->
<svg xmlns="http://www.w3.org/2000/svg" xmlns:xlink="http://www.w3.org/1999/xlink" version="1.1" id="Capa_1" x="0px" y="0px" viewBox="0 0 512 512" style="enable-background:new 0 0 512 512;" xml:space="preserve" width="512" height="512">
<g>
	<g>
		<g>
			<g>
				<g>
					<g>
						<g>
							<g>
								<g>
									<g>
										<circle style="fill:#FF583E;" cx="256" cy="256" r="256"/>
									</g>
								</g>
							</g>
						</g>
					</g>
				</g>
			</g>
		</g>
	</g>
	<path style="fill:#E82E21;" d="M299.493,508.304c120.01-20.542,211.49-124.611,212.48-250.247l-65.065-65.065l-33.95,48.25   l-48.25-48.25l-259.995,18.27l-33.993,46.363l83.726,83.726l-9.197,12.709L299.493,508.304z"/>
	<g>
		<polygon style="fill:#2B4160;" points="266,273 97.708,237 97.708,179 266,179   "/>
	</g>
	<g>
		<rect x="369" y="202.215" style="fill:#3F6199;" width="48" height="83.07"/>
	</g>
	<g>
		<rect x="405.5" y="192.992" style="fill:#2B4160;" width="41.409" height="101.516"/>
	</g>
	<g>
		<polygon style="fill:#2B4160;" points="100.63,237.625 70.721,257.625 70.721,159 100.63,179   "/>
	</g>
	<g>
		<path style="fill:#3F6199;" d="M328.406,370H183.594c-29.875,0-54.094-24.219-54.094-54.094v-82.813    c0-29.875,24.219-54.094,54.094-54.094h144.813c29.875,0,54.094,24.219,54.094,54.094v82.813    C382.5,345.781,358.281,370,328.406,370z"/>
	</g>
	<g>
		<path style="fill:#2B4160;" d="M328.406,179h-72.501v191h72.501c29.875,0,54.094-24.219,54.094-54.094v-82.813    C382.5,203.219,358.281,179,328.406,179z"/>
	</g>
	<g>
		<rect x="164" y="243" style="fill:#2B4160;" width="184" height="92.667"/>
	</g>
	<g>
		<rect x="255.905" y="243" style="fill:#1F3651;" width="92.095" height="92.667"/>
	</g>
	<g>
		<rect x="305" y="208.312" style="fill:#FFC200;" width="43" height="21.688"/>
	</g>
</g>















</svg>
